#N canvas 161 23 844 384 10;
#X declare -lib mrpeach;
#X obj 40 121 unpackOSC;
#X obj -56 15 import mrpeach;
#X text 38 16 importando biblioteca para objetos OSC;
#X text 142 66 recebendo dados e convertendo;
#X text 142 94 pode ser utilizado;
#X text 142 80 OSC. O protocolo TCP também;
#X obj -28 198 unpack f f f;
#X floatatom -48 225 7 0 0 0 - - -;
#X floatatom -1 225 7 0 0 0 - - -;
#X floatatom 46 225 7 0 0 0 - - -;
#X obj -9 264 vsl 15 30 -2 2 0 0 1.11111e+09 1.11111e+09 empty 0 -9
0 10 -262144 -1 -1 1160 1;
#X obj 6 264 vsl 15 30 -2 2 0 0 -2.14748e+09 -2.14748e+09 empty 0 -9
0 10 -262144 -1 -1 1365 1;
#X obj 21 264 vsl 15 30 -2 2 0 0 4twcacwsdffxsaecg saaxsfsfxdfa empty
0 -9 0 10 -262144 -1 -1 802 1;
#X text -53 304 X \, Y e Z - acelerômetro;
#X obj 104 245 bng 25 250 50 0 empty empty empty 17 7 0 10 -262144
-1 -1;
#X obj 138 245 bng 25 250 50 0 empty empty empty 17 7 0 10 -258113
-1 -1;
#X obj 180 196 unpack f f;
#X floatatom 180 265 7 0 0 0 - - -;
#X floatatom 232 265 7 0 0 0 - - -;
#X text 210 286 X + Y;
#X text 200 306 inclinação;
#X text 115 269 botões;
#X floatatom 298 245 6 0 0 0 - - -;
#X text 297 265 bússola;
#X text 297 278 (graus);
#X obj 90 148 route /accel /branco /vermelho /tilts /compass /altitude
/latitude /longitude;
#X text 372 267 altitude;
#X text 372 280 (metros);
#X text 464 256 latitude;
#X text 576 249 longitude;
#X floatatom 380 246 5 0 0 0 - - -;
#X text 590 265 (graus);
#X text 470 267 (graus);
#N canvas 206 306 450 300 calculo_graus 0;
#X obj 249 181 expr $f1 + ($f2 * 0.000001);
#X obj 217 87 moses 0;
#X obj 125 128 f;
#X obj 244 141 f;
#X obj 72 182 expr $f1 - ($f2 * 0.000001);
#X obj 215 30 unpack f f;
#X obj 215 55 t f f;
#X obj 217 111 t b b;
#X obj 256 111 t b b;
#X obj 340 128 f;
#X obj 215 7 inlet;
#X obj 160 256 outlet;
#X connect 0 0 11 0;
#X connect 1 0 7 0;
#X connect 1 1 8 0;
#X connect 2 0 4 0;
#X connect 3 0 4 1;
#X connect 3 0 0 1;
#X connect 4 0 11 0;
#X connect 5 0 6 0;
#X connect 5 1 3 1;
#X connect 6 0 1 0;
#X connect 6 1 2 1;
#X connect 6 1 9 1;
#X connect 7 0 2 0;
#X connect 7 1 3 0;
#X connect 8 0 9 0;
#X connect 8 1 3 0;
#X connect 9 0 0 0;
#X connect 10 0 5 0;
#X restore 443 214 pd calculo_graus;
#X floatatom 476 239 5 0 0 0 - - -;
#N canvas 206 306 450 300 calculo_graus 0;
#X obj 249 181 expr $f1 + ($f2 * 0.000001);
#X obj 217 87 moses 0;
#X obj 125 128 f;
#X obj 244 141 f;
#X obj 72 182 expr $f1 - ($f2 * 0.000001);
#X obj 215 30 unpack f f;
#X obj 215 55 t f f;
#X obj 217 111 t b b;
#X obj 256 111 t b b;
#X obj 340 128 f;
#X obj 215 7 inlet;
#X obj 160 256 outlet;
#X connect 0 0 11 0;
#X connect 1 0 7 0;
#X connect 1 1 8 0;
#X connect 2 0 4 0;
#X connect 3 0 4 1;
#X connect 3 0 0 1;
#X connect 4 0 11 0;
#X connect 5 0 6 0;
#X connect 5 1 3 1;
#X connect 6 0 1 0;
#X connect 6 1 2 1;
#X connect 6 1 9 1;
#X connect 7 0 2 0;
#X connect 7 1 3 0;
#X connect 8 0 9 0;
#X connect 8 1 3 0;
#X connect 9 0 0 0;
#X connect 10 0 5 0;
#X restore 553 204 pd calculo_graus;
#X floatatom 586 229 5 0 0 0 - - -;
#X msg 40 47 status;
#X obj 40 92 udpreceive 54321;
#X msg 56 69 port 54321;
#X connect 0 0 25 0;
#X connect 6 0 7 0;
#X connect 6 1 8 0;
#X connect 6 2 9 0;
#X connect 7 0 10 0;
#X connect 8 0 11 0;
#X connect 9 0 12 0;
#X connect 16 0 17 0;
#X connect 16 1 18 0;
#X connect 25 0 6 0;
#X connect 25 1 14 0;
#X connect 25 2 15 0;
#X connect 25 3 16 0;
#X connect 25 4 22 0;
#X connect 25 5 30 0;
#X connect 25 6 33 0;
#X connect 25 7 35 0;
#X connect 33 0 34 0;
#X connect 35 0 36 0;
#X connect 37 0 38 0;
#X connect 38 0 0 0;
#X connect 39 0 38 0;
