#N canvas 30 23 1158 715 10;
#X obj 53 3 cnv 15 130 270 empty empty AudioDeck 18 12 0 18 -228856
-66577 0;
#X obj 58 33 cnv 15 120 40 empty empty empty 20 12 0 13 -191612 -66577
0;
#X obj 58 77 cnv 15 120 189 empty empty Player 20 12 0 12 -191612 -66577
0;
#X obj 79 156 vsl 25 30 0 1 0 0 \$0-tapedeck_play_volume_send \$0-tapedeck_play_volume_r
volume -16 -9 0 12 -262144 -1 -1 0 0;
#X obj 117 170 tgl 18 0 \$0-tapedeck_play_loop_send \$0-tapedeck_play_loop_r
loop 23 10 0 10 -262144 -1 -1 0 1;
#X obj 63 247 tgl 15 0 \$0-tapedeck_play_autoplay_send \$0-tapedeck_play_autoplay_r
autoplay 17 7 0 10 -262144 -1 -1 0 1;
#X obj 99 101 bng 33 250 50 0 \$0-tapedeck_play_pause_send \$0-tapedeck_play_pause_r
PAUSE 3 17 0 10 -262130 -1 -1;
#X obj 135 101 bng 33 250 50 0 \$0-tapedeck_play_stop_send \$0-tapedeck_play_stop_r
STOP 3 17 0 11 -261682 -1 -1;
#X obj 63 101 bng 33 250 50 0 \$0-tapedeck_play_play_send \$0-tapedeck_play_play_r
PLAY 3 17 0 11 -203904 -1 -1;
#X obj 126 212 nbx 3 14 0.01 1 1 1 \$0-tapedeck_play_pan_send \$0-tapedeck_play_pan_r
PAN 0 -8 0 10 -191407 -66577 -66577 0.5 256;
#X obj 65 212 nbx 5 14 -1 1 0 1 \$0-tapedeck_play_vel_send \$0-tapedeck_play_vel_r
vel 0 -8 0 10 -191407 -66577 -66577 0.0235127 256;
#X text 150 250 v1.0;
#X text 86 228 SHIFT+click;
#X obj 104 198 bng 12 250 50 0 \$0-tapedeck_play_orig_vel_send \$0-tapedeck_play_orig_vel_r
empty 17 7 0 10 -262144 -1 -1;
#X obj 65 39 bng 26 250 50 0 \$0-audiodeck_open_send \$0-tapedeck_open_r
empty 6 16 0 11 -4160 -1 -1;
#X obj 205 -133 cnv 15 600 330 empty empty audio 20 12 0 14 -233017
-66577 0;
#X obj 206 205 cnv 15 760 350 empty empty player 20 12 0 14 -233017
-66577 0;
#X obj 318 481 *~;
#X obj 398 366 phasor~;
#X obj 398 387 *~;
#X msg 406 344 0;
#X msg 310 313 0;
#X text 434 343 stop;
#X text 337 312 pause;
#X floatatom 398 275 12 0 0 0 - - -;
#X obj 697 296 metro 1;
#X obj 235 389 \$1 20;
#X obj 235 411 line~;
#X text 472 276 velocidade original da gravação;
#X msg 692 268 stop;
#X obj 693 414 t b b b;
#X obj 709 369 spigot;
#X obj 721 391 spigot 1;
#X obj 766 369 == 0;
#X text 801 371 loop on/off;
#X obj 695 497 spigot;
#X obj 219 255 t b b;
#X obj 733 238 t b b b;
#N canvas 820 276 412 251 counter 0;
#X obj 25 73 f;
#X obj 95 80 + 1;
#X obj 25 18 inlet;
#X obj 25 48 bng 15 250 50 0 empty empty empty 17 7 0 10 -262144 -1
-1;
#X obj 25 128 outlet;
#X obj 262 16 inlet;
#X text 302 18 change max;
#X text 61 20 count;
#X obj 95 102 mod 1;
#X obj 116 138 ==;
#X obj 138 102 - 1;
#X obj 116 190 outlet;
#X obj 116 164 sel 1;
#X text 160 191 bang on max;
#X obj 135 14 inlet;
#X text 171 16 reset;
#X msg 135 38 0;
#X obj 262 39 i;
#X connect 0 0 1 0;
#X connect 0 0 4 0;
#X connect 1 0 8 0;
#X connect 2 0 3 0;
#X connect 3 0 0 0;
#X connect 5 0 17 0;
#X connect 8 0 0 1;
#X connect 8 0 9 0;
#X connect 9 0 12 0;
#X connect 10 0 9 1;
#X connect 12 0 11 0;
#X connect 14 0 16 0;
#X connect 16 0 0 1;
#X connect 17 0 10 0;
#X connect 17 0 8 1;
#X restore 697 319 pd counter;
#X obj 307 508 *~;
#X obj 462 508 *~;
#X obj 477 481 expr ($f1-1)*-1;
#X obj 284 530 outlet~;
#X obj 462 530 outlet~;
#X obj 500 370 v \$0-QDSrecA;
#X obj 754 297 r \$0-tempoA;
#X obj 398 250 v \$0-FreqrecA;
#X obj 516 232 r \$0-tapedeck_play_play_send;
#X obj 695 526 s \$0-tapedeck_play_play_r;
#X obj 219 230 r \$0-tapedeck_play_pause_send;
#X obj 703 214 r \$0-tapedeck_play_stop_send;
#X obj 209 366 r \$0-tapedeck_play_volume_send;
#X obj 767 344 r \$0-tapedeck_play_loop_send;
#X obj 398 208 r \$0-tapedeck_play_orig_vel_send;
#X obj 398 296 s \$0-tapedeck_play_vel_r;
#X obj 398 318 r \$0-tapedeck_play_vel_send;
#X obj 766 474 r \$0-tapedeck_play_autoplay_send;
#X text 61 293 Edu Meneses (2015);
#X text 50 321 Released under GNU GPL;
#X text 61 307 www.edumeneses.com;
#X obj 814 88 cnv 15 310 90 empty empty patch_mapping_AudioDeck 20
12 0 14 -232576 -66577 0;
#N canvas 786 154 440 389 instructions 0;
#X text 76 291 Edu Meneses (2015);
#X text 65 319 Released under GNU GPL;
#X text 76 305 www.edumeneses.com;
#X text -38 103 play \, pause \, stop: player controls (bang).;
#X text -39 119 volume: player volume (0 to 1).;
#X text -40 137 loop: play in loop (0 or 1).;
#X text -38 153 vel: set player speed (-1 to 1).;
#X text -38 169 vel_orig: return to original speed (bang).;
#X text -38 185 pan: control pan (0 to 1 \, L to R).;
#X text -38 201 autoplay: turn on/off autoplay after stops recording
(0 or 1).;
#X text -53 25 To use this subpatch with external controllers send
the command messages to mapping_commands:;
#X text -55 74 audiodeck:;
#X text -39 88 open: select and open audio file (bang).;
#X restore 1013 156 pd instructions;
#X obj 827 130 r mapping_commands;
#X symbolatom 980 130 15 0 0 2 address #0-player_patch_mapping_default
-;
#X obj 385 -93 openpanel;
#X obj 385 5 soundfiler;
#X floatatom 683 22 12 0 0 0 - - -;
#X text 677 64 qde de samples;
#X text 215 119 frequencia de leitura para o phasor;
#X floatatom 295 79 20 0 0 0 - - -;
#X obj 295 -4 samplerate~;
#X obj 295 -27 loadbang;
#X obj 295 58 expr $f2 / $f1;
#X obj 385 -67 pack symbol \$0;
#X obj 672 -59 table \$0-esquerda;
#X obj 672 -35 table \$0-direita;
#X msg 385 -39 read -resize \$1 \$2-esquerda \$2-direita;
#X floatatom 508 79 12 0 0 0 - - -;
#X obj 508 100 s \$0-tempoA;
#X obj 508 58 expr 1000 * ($f1 / $f2);
#X text 487 118 tempo de duracao do audio em ms;
#X text 97 37 Open audio;
#X text 114 51 file;
#X obj 457 161 s \$0-autoplay;
#X obj 457 141 bng 15 250 50 0 empty empty empty 17 7 0 10 -262144
-1 -1;
#X obj 695 453 r \$0-autoplay;
#X obj 318 418 tabread4~ \$0-esquerda;
#X obj 452 418 tabread4~ \$0-direita;
#X obj 452 481 *~;
#N canvas 7 346 898 333 patch_mapping_audiodeck 0;
#X obj 161 114 s \$0-tapedeck_play_pause_r;
#X obj 371 115 s \$0-tapedeck_play_orig_vel_r;
#X obj 126 93 s \$0-tapedeck_play_play_r;
#X obj 196 135 s \$0-tapedeck_play_stop_r;
#X obj 126 4 inlet;
#X obj 231 156 s \$0-tapedeck_play_volume_r;
#X obj 301 198 s \$0-tapedeck_play_loop_r;
#X obj 336 93 s \$0-tapedeck_play_vel_r;
#X obj 406 135 s \$0-tapedeck_play_pan_r;
#X obj 507 -41 loadbang;
#X obj 213 4 inlet;
#X obj 507 10 s \$0-player_patch_mapping_default;
#X obj 126 32 route audiodeck;
#X msg 507 -17 set audiodeck;
#X obj 266 177 s \$0-tapedeck_play_autoplay_r;
#X obj 126 55 route play pause stop volume autoplay loop vel vel_orig
pan open;
#X obj 441 155 s \$0-tapedeck_open_r;
#X connect 4 0 12 0;
#X connect 9 0 13 0;
#X connect 10 0 12 1;
#X connect 12 0 15 0;
#X connect 13 0 11 0;
#X connect 15 0 2 0;
#X connect 15 1 0 0;
#X connect 15 2 3 0;
#X connect 15 3 5 0;
#X connect 15 4 14 0;
#X connect 15 5 6 0;
#X connect 15 6 7 0;
#X connect 15 7 1 0;
#X connect 15 8 8 0;
#X connect 15 9 16 0;
#X restore 827 156 pd patch_mapping_audiodeck;
#X obj 295 100 v \$0-FreqrecA;
#X obj 683 49 v QDSrecA;
#X connect 9 0 41 0;
#X connect 9 0 39 1;
#X connect 14 0 64 0;
#X connect 17 0 39 0;
#X connect 18 0 19 0;
#X connect 19 0 86 0;
#X connect 19 0 87 0;
#X connect 20 0 18 1;
#X connect 20 0 18 0;
#X connect 21 0 18 0;
#X connect 24 0 54 0;
#X connect 25 0 38 0;
#X connect 26 0 27 0;
#X connect 27 0 17 1;
#X connect 27 0 88 1;
#X connect 29 0 25 0;
#X connect 30 0 38 1;
#X connect 30 1 29 0;
#X connect 30 2 20 0;
#X connect 31 0 38 1;
#X connect 32 0 30 0;
#X connect 33 0 32 1;
#X connect 35 0 48 0;
#X connect 36 0 29 0;
#X connect 36 1 21 0;
#X connect 37 0 38 1;
#X connect 37 1 29 0;
#X connect 37 2 20 0;
#X connect 38 1 32 0;
#X connect 38 1 31 0;
#X connect 39 0 42 0;
#X connect 40 0 43 0;
#X connect 41 0 40 1;
#X connect 44 0 19 1;
#X connect 45 0 38 2;
#X connect 46 0 24 0;
#X connect 47 0 25 0;
#X connect 47 0 44 0;
#X connect 47 0 46 0;
#X connect 49 0 36 0;
#X connect 50 0 37 0;
#X connect 51 0 26 0;
#X connect 52 0 33 0;
#X connect 52 0 31 1;
#X connect 53 0 46 0;
#X connect 55 0 18 0;
#X connect 56 0 35 1;
#X connect 62 0 89 0;
#X connect 63 0 89 1;
#X connect 64 0 73 0;
#X connect 65 0 66 0;
#X connect 65 0 72 0;
#X connect 65 0 84 0;
#X connect 65 0 79 0;
#X connect 66 0 91 0;
#X connect 69 0 90 0;
#X connect 70 0 72 1;
#X connect 70 0 79 1;
#X connect 71 0 70 0;
#X connect 72 0 69 0;
#X connect 73 0 76 0;
#X connect 76 0 65 0;
#X connect 77 0 78 0;
#X connect 79 0 77 0;
#X connect 84 0 83 0;
#X connect 85 0 35 0;
#X connect 86 0 17 0;
#X connect 87 0 88 0;
#X connect 88 0 40 0;
#X coords 0 -1 1 1 136 276 2 50 0;
