#N canvas 515 205 361 773 10;
#X floatatom 184 76 5 0 0 0 - - -;
#X floatatom 185 166 5 0 0 0 - - -;
#X obj 135 113 * 2;
#X floatatom 187 250 5 0 0 0 - - -;
#X obj 137 197 * 2;
#X floatatom 189 331 5 0 0 0 - - -;
#X obj 139 278 * 2;
#X floatatom 197 413 5 0 0 0 - - -;
#X obj 142 359 * 2;
#X floatatom 189 486 5 0 0 0 - - -;
#X obj 139 433 * 2;
#X floatatom 187 565 5 0 0 0 - - -;
#X obj 137 512 * 2;
#X floatatom 183 644 5 0 0 0 - - -;
#X obj 133 591 * 2;
#X obj 135 140 pow 1;
#X obj 137 224 pow 2;
#X obj 139 305 pow 3;
#X obj 142 386 pow 4;
#X obj 139 460 pow 5;
#X obj 137 539 pow 6;
#X obj 133 618 pow 7;
#X obj 224 209 +;
#X obj 223 285 +;
#X obj 223 355 +;
#X obj 235 439 +;
#X obj 229 507 +;
#X obj 225 588 +;
#X obj 230 662 +;
#X obj 20 21 inlet;
#X obj 229 693 outlet;
#X obj 20 52 unpack f f f f f f f f;
#X connect 0 0 22 1;
#X connect 1 0 22 0;
#X connect 2 0 15 0;
#X connect 3 0 23 0;
#X connect 4 0 16 0;
#X connect 5 0 24 0;
#X connect 6 0 17 0;
#X connect 7 0 25 0;
#X connect 8 0 18 0;
#X connect 9 0 26 0;
#X connect 10 0 19 0;
#X connect 11 0 27 0;
#X connect 12 0 20 0;
#X connect 13 0 28 0;
#X connect 14 0 21 0;
#X connect 15 0 1 0;
#X connect 16 0 3 0;
#X connect 17 0 5 0;
#X connect 18 0 7 0;
#X connect 19 0 9 0;
#X connect 20 0 11 0;
#X connect 21 0 13 0;
#X connect 22 0 23 1;
#X connect 23 0 24 1;
#X connect 24 0 25 1;
#X connect 25 0 26 1;
#X connect 26 0 27 1;
#X connect 27 0 28 1;
#X connect 28 0 30 0;
#X connect 29 0 31 0;
#X connect 31 0 14 0;
#X connect 31 1 12 0;
#X connect 31 2 10 0;
#X connect 31 3 8 0;
#X connect 31 4 6 0;
#X connect 31 5 4 0;
#X connect 31 6 2 0;
#X connect 31 7 0 0;
