#N canvas 1179 452 1031 674 10;
#X symbolatom 185 64 10 0 0 0 - - -;
#X symbolatom 289 61 10 0 0 0 - - -;
#X obj 171 19 bng 15 250 50 0 empty empty empty 17 7 0 10 -262144 -1
-1;
#X obj 293 24 bng 15 250 50 0 empty empty empty 17 7 0 10 -262144 -1
-1;
#N canvas 649 651 450 300 buddy_symbol 0;
#X obj 52 40 inlet;
#X obj 178 20 inlet;
#X obj 41 147 symbol;
#X obj 218 148 symbol;
#X obj 178 76 spigot;
#X obj 113 8 loadbang;
#X msg 113 29 1;
#X msg 143 29 0;
#X obj 116 160 expr $f1 + $f2;
#X obj 116 181 sel 2;
#X obj 128 230 list;
#X obj 119 250 outlet;
#X obj 116 205 t b b b;
#X obj 52 61 spigot;
#X msg 212 123 0;
#X msg 181 123 1;
#X obj 178 98 t b b b s;
#X msg 47 121 0;
#X msg 16 121 1;
#X obj 41 91 t b b s;
#X msg 181 229 0;
#X obj 181 250 t f f;
#X connect 0 0 13 0;
#X connect 1 0 4 0;
#X connect 2 0 10 0;
#X connect 3 0 10 1;
#X connect 4 0 16 0;
#X connect 5 0 6 0;
#X connect 6 0 4 1;
#X connect 6 0 13 1;
#X connect 7 0 4 1;
#X connect 7 0 13 1;
#X connect 8 0 9 0;
#X connect 9 0 12 0;
#X connect 10 0 11 0;
#X connect 12 0 6 0;
#X connect 12 0 20 0;
#X connect 12 1 2 0;
#X connect 12 2 3 0;
#X connect 13 0 19 0;
#X connect 14 0 4 1;
#X connect 15 0 8 1;
#X connect 16 0 8 0;
#X connect 16 1 15 0;
#X connect 16 2 14 0;
#X connect 16 3 3 1;
#X connect 17 0 13 1;
#X connect 18 0 8 0;
#X connect 19 0 18 0;
#X connect 19 1 17 0;
#X connect 19 2 2 1;
#X connect 20 0 21 0;
#X connect 21 0 8 0;
#X connect 21 1 8 1;
#X restore 207 135 pd buddy_symbol;
#X obj 207 156 print;
#X connect 0 0 4 0;
#X connect 1 0 4 1;
#X connect 2 0 0 0;
#X connect 3 0 1 0;
#X connect 4 0 5 0;
