#N canvas 1055 23 630 899 10;
#X obj 96 -594 / 2;
#X obj 127 -594 % 2;
#X floatatom 96 -554 5 0 0 0 - - -, f 5;
#X obj 96 -574 i;
#X obj 96 -510 / 2;
#X obj 96 -489 i;
#X obj 129 -512 % 2;
#X floatatom 96 -470 5 0 0 0 - - -, f 5;
#X obj 97 -423 / 2;
#X obj 124 -423 % 2;
#X obj 97 -403 i;
#X floatatom 96 -383 5 0 0 0 - - -, f 5;
#X obj 96 -342 / 2;
#X obj 123 -342 % 2;
#X obj 96 -320 i;
#X floatatom 95 -298 5 0 0 0 - - -, f 5;
#X obj 95 -259 / 2;
#X obj 122 -259 % 2;
#X obj 95 -239 i;
#X floatatom 95 -219 5 0 0 0 - - -, f 5;
#X obj 95 -181 / 2;
#X obj 122 -181 % 2;
#X obj 95 -162 i;
#X floatatom 94 -142 5 0 0 0 - - -, f 5;
#X obj 94 -104 / 2;
#X obj 121 -104 % 2;
#X obj 94 -85 i;
#X floatatom 95 -63 5 0 0 0 - - -, f 5;
#X obj 95 -42 % 2;
#X obj 96 -447 t f f;
#X obj 96 -363 t f f;
#X obj 95 -279 t f f;
#X obj 95 -201 t f f;
#X obj 95 -124 t f f;
#X obj 96 -534 t f f;
#X obj 146 -725 inlet;
#X obj 255 102 outlet;
#X obj 146 -655 t b f f;
#X obj 146 -700 moses 0;
#X obj 146 -677 moses 256;
#X obj 393 103 list;
#X obj 393 124 outlet;
#X obj 393 -715 inlet;
#X text 406 -693 bang to output last conversion;
#X obj 255 59 pack f f f f f f f f;
#X obj 255 32 f;
#X connect 0 0 3 0;
#X connect 1 0 45 1;
#X connect 2 0 34 0;
#X connect 3 0 2 0;
#X connect 4 0 5 0;
#X connect 5 0 7 0;
#X connect 6 0 44 1;
#X connect 7 0 29 0;
#X connect 8 0 10 0;
#X connect 9 0 44 2;
#X connect 10 0 11 0;
#X connect 11 0 30 0;
#X connect 12 0 14 0;
#X connect 13 0 44 3;
#X connect 14 0 15 0;
#X connect 15 0 31 0;
#X connect 16 0 18 0;
#X connect 17 0 44 4;
#X connect 18 0 19 0;
#X connect 19 0 32 0;
#X connect 20 0 22 0;
#X connect 21 0 44 5;
#X connect 22 0 23 0;
#X connect 23 0 33 0;
#X connect 24 0 26 0;
#X connect 25 0 44 6;
#X connect 26 0 27 0;
#X connect 27 0 28 0;
#X connect 28 0 44 7;
#X connect 29 0 8 0;
#X connect 29 1 9 0;
#X connect 30 0 12 0;
#X connect 30 1 13 0;
#X connect 31 0 16 0;
#X connect 31 1 17 0;
#X connect 32 0 20 0;
#X connect 32 1 21 0;
#X connect 33 0 24 0;
#X connect 33 1 25 0;
#X connect 34 0 4 0;
#X connect 34 1 6 0;
#X connect 35 0 38 0;
#X connect 37 0 45 0;
#X connect 37 1 0 0;
#X connect 37 2 1 0;
#X connect 38 1 39 0;
#X connect 39 0 37 0;
#X connect 40 0 41 0;
#X connect 42 0 40 0;
#X connect 44 0 40 1;
#X connect 44 0 36 0;
#X connect 45 0 44 0;
