#N canvas 0 22 450 300 10;
#N canvas 442 229 797 509 distortion 0;
#X obj 280 29 inlet;
#X obj 18 31 inlet~;
#X obj 18 413 outlet~;
#X obj 179 31 inlet;
#X obj 380 425 outlet;
#X text 173 15 init-bang;
#X text 280 13 route parameters;
#X text 376 444 rejected parameters;
#X text 16 15 from pre-processor;
#X text 17 439 to post-processor;
#X obj 254 424 outlet;
#X text 243 459 init-bang;
#X text 174 3 from prev.;
#X text 250 445 to next;
#X obj 279 57 route type amount;
#N canvas 235 23 528 461 distort 1;
#X obj 303 29 inlet;
#X obj 458 27 inlet;
#X obj 50 17 inlet~;
#X obj 52 410 outlet~;
#N canvas 44 296 630 414 tanh 0;
#X obj 113 156 *~;
#X obj 113 198 expr~ tanh($v1);
#X obj 119 247 /~;
#X obj 338 62 * 50;
#X obj 112 38 inlet~;
#X obj 339 27 inlet;
#X obj 120 344 outlet~;
#X obj 455 30 inlet;
#X obj 383 193 rmstodb;
#X obj 388 219 - 50;
#X obj 390 246 / 5;
#X obj 222 283 line~ 20;
#X obj 158 295 *~;
#X connect 0 0 1 0;
#X connect 1 0 2 0;
#X connect 2 0 12 0;
#X connect 3 0 0 1;
#X connect 4 0 0 0;
#X connect 5 0 3 0;
#X connect 5 0 8 0;
#X connect 7 0 11 0;
#X connect 8 0 9 0;
#X connect 9 0 10 0;
#X connect 10 0 2 1;
#X connect 11 0 12 1;
#X connect 12 0 6 0;
#X restore 52 249 pd tanh;
#X msg 86 192 0;
#X msg 113 192 1;
#N canvas 152 312 593 402 doppler 1;
#X obj 207 111 * 6;
#X obj 186 218 +~ 1;
#X obj 186 237 *~ 5;
#X obj 187 256 +~ 2;
#X obj 347 248 delwrite~ \$0-a 500;
#X obj 185 275 vd~ \$0-a;
#X obj 178 39 inlet~;
#X obj 265 36 inlet;
#X obj 358 42 inlet;
#X obj 186 343 outlet~;
#X obj 232 293 line~ 20;
#X obj 185 314 *~;
#X connect 0 0 2 1;
#X connect 1 0 2 0;
#X connect 2 0 3 0;
#X connect 3 0 5 0;
#X connect 5 0 11 0;
#X connect 6 0 1 0;
#X connect 6 0 4 0;
#X connect 7 0 0 0;
#X connect 8 0 10 0;
#X connect 10 0 11 1;
#X connect 11 0 9 0;
#X restore 301 249 pd doppler;
#X msg 343 196 0;
#X msg 370 196 1;
#X obj 303 89 route type1 type2;
#X connect 0 0 10 0;
#X connect 1 0 4 1;
#X connect 1 0 7 1;
#X connect 2 0 4 0;
#X connect 2 0 7 0;
#X connect 4 0 3 0;
#X connect 5 0 4 2;
#X connect 6 0 4 2;
#X connect 7 0 3 0;
#X connect 8 0 7 2;
#X connect 9 0 7 2;
#X connect 10 0 6 0;
#X connect 10 0 8 0;
#X connect 10 1 5 0;
#X connect 10 1 9 0;
#X restore 65 259 pd distort;
#X obj 218 155 route 0;
#X connect 0 0 14 0;
#X connect 1 0 15 0;
#X connect 14 0 15 1;
#X connect 14 1 16 0;
#X connect 14 2 4 0;
#X connect 15 0 2 0;
#X connect 16 1 15 2;
#X restore 275 183 pd distortion;
