#N canvas 173 32 1093 702 10;
#X declare -lib moocow;
#X obj 520 324 unpack f f f;
#X obj -7 317 tgl 15 0 empty empty empty 17 7 0 10 -262144 -1 -1 0
1;
#X text 528 494 acelerômetro;
#X floatatom 507 349 5 0 0 0 - - -;
#X floatatom 550 349 5 0 0 0 - - -;
#X floatatom 592 349 5 0 0 0 - - -;
#X obj 94 118 hradio 15 1 0 5 empty empty empty 0 -8 0 10 -262144 -1
-1 1;
#X text 175 117 selecionar a porta do arduino;
#X obj -7 342 outlet;
#X obj 503 427 outlet;
#X obj 550 427 outlet;
#X obj 597 427 outlet;
#N canvas 745 95 454 347 in&out 0;
#X obj 99 77 sel 10;
#X msg 99 251 47 98 111 116 97 111 53 32 48 13;
#X msg 132 104 0;
#X msg 63 104 1;
#X obj 166 30 inlet;
#X obj 47 304 outlet;
#X obj 166 77 route 10;
#X obj 47 279 spigot;
#N canvas 854 435 450 300 list-extend 0;
#X obj 87 51 inlet;
#X obj 166 76 inlet;
#X obj 87 267 outlet;
#X text 82 31 add new elements to stored list and output it;
#X text 166 57 set stored list \, no output;
#X obj 87 163 list prepend;
#X obj 182 163 t a;
#X connect 0 0 5 0;
#X connect 1 0 5 1;
#X connect 5 0 6 0;
#X connect 5 0 2 0;
#X connect 6 0 5 1;
#X restore 124 180 pd list-extend;
#X obj 124 205 list prepend set;
#X obj 124 227 route list;
#X connect 0 0 3 0;
#X connect 0 0 1 0;
#X connect 0 0 8 1;
#X connect 0 1 2 0;
#X connect 1 0 7 0;
#X connect 2 0 7 1;
#X connect 3 0 7 1;
#X connect 4 0 0 0;
#X connect 4 0 6 0;
#X connect 6 1 8 0;
#X connect 7 0 5 0;
#X connect 8 0 9 0;
#X connect 9 0 10 0;
#X connect 10 0 1 0;
#X restore 94 190 pd in&out;
#X text 192 157 < change the numer 2 to the comport used by Arduino
;
#X text 193 169 < change the numer 9600 to the boudrate used by Arduino
;
#X msg 94 138 open \$1;
#X obj 12 316 s b1;
#X obj 531 304 s xyz;
#X obj 94 215 bytes2any 128 0;
#X obj 43 317 tgl 15 0 empty empty empty 17 7 0 10 -262144 -1 -1 0
1;
#X obj 43 342 outlet;
#X obj 93 317 tgl 15 0 empty empty empty 17 7 0 10 -262144 -1 -1 0
1;
#X obj 93 342 outlet;
#X obj 143 317 tgl 15 0 empty empty empty 17 7 0 10 -262144 -1 -1 0
1;
#X obj 143 342 outlet;
#X obj 62 316 s b2;
#X obj 112 316 s b3;
#X obj 162 316 s b4;
#X text 13 538 2-) Para comunicação podemos utilizar os OUTLETs (como
abstract) ou os SENDs;
#X text 13 496 1-) Antes de iniciar a comunicação deve-se escolher
a porta de comunicação entre o HMI e o computador (0 a 4 no hot INLET)
;
#X obj 94 35 inlet;
#X msg 53 117 close;
#X msg 12 117 ports;
#X obj 94 69 route float close ports;
#X text 243 70 deixa passar números \, PORTS e CLOSE;
#X obj 181 191 print portas disponíveis;
#X text 13 568 3-) O cold INLET envia mensagens para impressão no
painel LCD do HMI;
#X obj 193 317 tgl 15 0 empty empty empty 17 7 0 10 -262144 -1 -1 0
1;
#X obj 193 342 outlet;
#X obj 212 316 s b5;
#X msg 501 61 print;
#X obj 501 105 route list;
#X obj 546 61 pack s;
#X obj 501 83 pack s s;
#X obj 501 17 inlet;
#X obj 501 39 t b a;
#X text 592 39 lcd.clear = limpa LCD;
#X text 592 57 lcd.(X \, Y) = seleciona linha e coluna para escrita
;
#X text 541 18 Aceita comandos para exibição no LCD;
#X text 594 77 OBS: X varia de 0 a 1;
#X text 624 88 Y varia de 0 a 15;
#X obj 94 163 comport 2 57600;
#N canvas 185 169 1031 565 MIDI 0;
#X obj 148 85 pack f 1 1;
#X obj 198 105 pack f 2 1;
#X obj 248 85 pack f 3 1;
#X obj 298 105 pack f 4 1;
#X obj 348 85 pack f 5 1;
#X obj 540 107 pack f 6 1;
#X obj 148 1 r b1;
#X obj 248 4 r b3;
#X obj 298 4 r b4;
#X obj 348 41 r b5;
#X obj 608 107 pack f 7 1;
#X obj 678 107 pack f 8 1;
#X obj 608 51 r tap;
#X obj 279 422 ctlout;
#X obj 179 287 inlet;
#X obj 69 304 spigot;
#X obj 764 104 pack f 9 1;
#X obj 832 104 pack f 10 1;
#X text 79 460 Este subpatch envia comandos MIDI para outros programas.
Não se esqueça de configurar o dispositivo de saída no PD e no computador.
;
#X text 122 306 ativa ou desativa o subpatch;
#X obj 381 344 mux 0 1 2 3 4 5 6 7 8 9 10;
#X obj 757 233 vradio 15 1 0 11 empty empty empty 0 -8 0 10 -262144
-1 -1 0;
#X obj 381 388 spigot;
#X obj 414 369 tgl 15 0 empty empty empty 17 7 0 10 -262144 -1 -1 0
1;
#X obj 148 64 * 127;
#X obj 198 64 * 127;
#X obj 248 64 * 127;
#X obj 608 84 * 127;
#X obj 678 84 * 127;
#X text 430 367 solo mode (para configuração);
#X text 776 232 botão 1;
#X text 776 247 botão 2;
#X text 776 262 botão 3;
#X text 776 277 botão 4;
#X text 776 292 botão 5;
#X text 775 307 sensor ultrassonico;
#X text 776 322 tap;
#X text 776 337 double tap;
#X text 776 352 acelerômetro eixo X;
#X text 776 367 acelerômetro eixo Y;
#X text 776 382 acelerômetro eixo Z;
#X obj 439 415 s MIDI_ON/OFF_tgl_receive;
#X msg 439 392 0;
#X obj 678 53 r dtap;
#X obj 540 84 r ultMIDI;
#N canvas 581 228 450 300 old_XYZ 0;
#X obj 152 97 unpack f f f;
#X obj 82 133 expr ($f1+280)/4;
#X obj 163 47 r xyz;
#X obj 186 133 expr ($f1+280)/4;
#X obj 289 133 expr ($f1+280)/4;
#X obj 82 157 pack f 9 1;
#X obj 186 157 pack f 10 1;
#X obj 289 157 pack f 11 1;
#X text 93 176 normaliza em 0 ou 1 a informação enviada;
#X connect 0 0 1 0;
#X connect 0 1 3 0;
#X connect 0 2 4 0;
#X connect 1 0 5 0;
#X connect 2 0 0 0;
#X connect 3 0 6 0;
#X connect 4 0 7 0;
#X restore 938 181 pd old_XYZ;
#X obj 764 71 r X_midi;
#X obj 832 71 r Y_midi;
#X obj 348 64 * 1;
#X obj 418 11 r b5;
#X obj 418 85 pack f 11 1;
#X obj 418 34 sel 0;
#X obj 298 64 * 127;
#X obj 148 43 tgl 15 0 empty empty empty 17 7 0 10 -262144 -1 -1 0
1;
#X obj 148 23 sel 1;
#X obj 248 45 tgl 15 0 empty empty empty 17 7 0 10 -262144 -1 -1 0
1;
#X obj 248 25 sel 1;
#X obj 298 45 tgl 15 0 empty empty empty 17 7 0 10 -262144 -1 -1 0
1;
#X obj 298 25 sel 1;
#X obj 197 43 tgl 15 0 empty empty empty 17 7 0 10 -262144 -1 -1 1
1;
#X obj 197 23 sel 1;
#X obj 197 1 r b2;
#X obj 418 58 + 1;
#X connect 0 0 15 0;
#X connect 0 0 20 0;
#X connect 1 0 15 0;
#X connect 1 0 20 1;
#X connect 2 0 15 0;
#X connect 2 0 20 2;
#X connect 3 0 15 0;
#X connect 3 0 20 3;
#X connect 4 0 15 0;
#X connect 4 0 20 4;
#X connect 5 0 20 5;
#X connect 5 0 15 0;
#X connect 6 0 54 0;
#X connect 7 0 56 0;
#X connect 8 0 58 0;
#X connect 9 0 48 0;
#X connect 10 0 15 0;
#X connect 10 0 20 6;
#X connect 11 0 15 0;
#X connect 11 0 20 7;
#X connect 12 0 27 0;
#X connect 14 0 15 1;
#X connect 15 0 13 0;
#X connect 16 0 20 8;
#X connect 16 0 15 0;
#X connect 17 0 20 9;
#X connect 17 0 15 0;
#X connect 20 0 22 0;
#X connect 21 0 20 11;
#X connect 22 0 13 0;
#X connect 23 0 22 1;
#X connect 23 0 42 0;
#X connect 24 0 0 0;
#X connect 25 0 1 0;
#X connect 26 0 2 0;
#X connect 27 0 10 0;
#X connect 28 0 11 0;
#X connect 42 0 41 0;
#X connect 43 0 28 0;
#X connect 44 0 5 0;
#X connect 46 0 16 0;
#X connect 47 0 17 0;
#X connect 48 0 4 0;
#X connect 49 0 51 0;
#X connect 50 0 15 0;
#X connect 51 0 62 0;
#X connect 52 0 3 0;
#X connect 53 0 24 0;
#X connect 54 0 53 0;
#X connect 55 0 26 0;
#X connect 56 0 55 0;
#X connect 57 0 52 0;
#X connect 58 0 57 0;
#X connect 59 0 25 0;
#X connect 60 0 59 0;
#X connect 61 0 60 0;
#X connect 62 0 50 0;
#X restore 364 30 pd MIDI;
#X obj 364 10 tgl 15 0 MIDI_ON/OFF_tgl_send MIDI_ON/OFF_tgl_receive
empty 17 7 0 10 -262144 -1 -1 0 1;
#X text 382 8 ON/OFF;
#X obj -22 146 r msg_LCD;
#X obj 521 407 s x;
#X obj 568 407 s y;
#X obj 615 407 s z;
#X obj 12 605 bng 25 250 50 0 calibracaobng_s calibracaobng_r empty
17 7 0 10 -258113 -1 -1;
#X text 41 602 BANG para iniciar a calibração do acelerômetro;
#X obj 368 383 line;
#X obj 368 405 i;
#X obj 368 339 - 3000;
#X obj 368 317 clip 3000 15700;
#X obj 368 361 pack f 50;
#X obj 244 317 tgl 15 0 empty empty empty 17 7 0 10 -262144 -1 -1 0
1;
#X obj 302 317 tgl 15 0 empty empty empty 17 7 0 10 -262144 -1 -1 0
1;
#X obj 244 342 outlet;
#X obj 302 342 outlet;
#X obj 264 316 s tap;
#X obj 94 240 route /botao1 /botao2 /botao3 /botao4 /botao5 /tap /dtap
/ult /XYZ;
#X obj 322 317 s dtap;
#X floatatom 368 426 5 0 0 0 - - -;
#X obj 410 501 s ultMIDI;
#X obj 368 449 s ult;
#X obj 410 449 / 100;
#X obj 353 471 outlet;
#X obj 490 472 s X_midi;
#X obj 490 447 / 2;
#X obj 597 447 / 2;
#X obj 597 472 s Y_midi;
#X obj 410 472 i;
#N canvas 463 196 648 415 xy 0;
#X obj 53 53 cnv 15 200 200 \$0-xy_fundo_send \$0-xy_fundo_r empty
20 12 0 14 -233017 -66577 0;
#X obj 63 53 cnv 10 35 20 \$0-xy_mao_send \$0-xy_mao_r mão 6 10 0
14 -148809 -262144 0;
#X obj 153 53 cnv 10 50 20 \$0-xy_corpo_send \$0-xy_corpo_r corpo 4
10 0 14 -148809 -262144 0;
#X obj 344 63 inlet;
#X obj 484 53 inlet;
#X floatatom 344 184 5 53 233 0 - - -;
#X obj 344 228 pack \$0 f;
#X obj 484 228 pack \$0 f;
#X obj 344 206 t b f;
#X floatatom 484 184 5 53 253 0 - - -;
#X obj 484 206 t b f;
#X text 352 18 inserir X e Y entre 0 e 199;
#X obj 344 159 + 53;
#X obj 484 159 + 53;
#X obj 411 87 loadbang;
#X msg 411 110 153;
#X text 250 329 Edu Meneses (2015);
#X text 239 357 Released under GNU GPL;
#X text 250 343 www.edumeneses.com;
#X msg 344 248 \; \$1-xy_mao_r pos 63 \$2;
#X obj 344 84 moses 0;
#X obj 344 109 moses 181;
#X obj 484 84 moses 0;
#X obj 484 109 moses 181;
#X msg 484 248 \; \$1-xy_corpo_r pos 153 \$2;
#X msg 493 134 179;
#X msg 355 135 179;
#X msg 316 109 0;
#X msg 456 109 0;
#X connect 3 0 20 0;
#X connect 4 0 22 0;
#X connect 5 0 8 0;
#X connect 6 0 19 0;
#X connect 7 0 24 0;
#X connect 8 0 6 0;
#X connect 8 1 6 1;
#X connect 9 0 10 0;
#X connect 10 0 7 0;
#X connect 10 1 7 1;
#X connect 12 0 5 0;
#X connect 13 0 9 0;
#X connect 14 0 15 0;
#X connect 15 0 9 0;
#X connect 15 0 5 0;
#X connect 20 0 27 0;
#X connect 20 1 21 0;
#X connect 21 0 12 0;
#X connect 21 1 26 0;
#X connect 22 0 28 0;
#X connect 22 1 23 0;
#X connect 23 0 13 0;
#X connect 23 1 25 0;
#X connect 25 0 13 0;
#X connect 26 0 12 0;
#X connect 27 0 12 0;
#X connect 28 0 13 0;
#X coords 0 -1 1 1 206 206 2 50 50;
#X restore 793 404 pd xy;
#X obj 796 384 hsl 200 15 0 199 0 0 empty empty empty -2 -8 0 10 -262144
-1 -1 0 1;
#N canvas 154 23 931 519 calibração 0;
#X obj 338 384 expr 100 - $f1;
#X obj 323 405 + 0;
#X obj 338 361 spigot;
#X obj 323 427 moses 0;
#X obj 318 451 moses 200;
#X obj 333 308 inlet;
#X obj 318 479 outlet;
#X obj 442 384 expr 100 - $f1;
#X obj 427 405 + 0;
#X obj 442 361 spigot;
#X obj 427 427 moses 0;
#X obj 422 451 moses 200;
#X obj 437 308 inlet;
#X obj 422 479 outlet;
#X obj 552 384 expr 100 - $f1;
#X obj 537 405 + 0;
#X obj 552 361 spigot;
#X obj 537 427 moses 0;
#X obj 532 451 moses 200;
#X obj 547 308 inlet;
#X obj 532 479 outlet;
#X obj 456 266 tgl 15 0 empty empty empty 17 7 0 10 -262144 -1 -1 0
1;
#X obj 146 15 r calibracaobng_s;
#X obj 68 195 s msg_LCD;
#X msg 74 90 print lcd.clear;
#X msg 98 132 print modo_de;
#X msg 115 174 print calibracao;
#X msg 86 110 print lcd.pos000;
#X msg 108 152 print lcd.pos100;
#X obj 146 40 t b b b b b b b;
#X obj 178 63 delay 20;
#X obj 188 83 delay 40;
#X obj 208 103 delay 60;
#X obj 218 123 delay 80;
#X obj 228 143 delay 100;
#X msg 233 63 1;
#X obj 408 57 delay 3000;
#X msg 435 205 0;
#X obj 408 82 t b b;
#X obj 652 175 print calibração do acelerômetro concluída.;
#X obj 637 304 s msg_LCD;
#X msg 637 198 print lcd.clear;
#X obj 558 170 delay 2500;
#X msg 677 280 print concluida;
#X msg 657 241 print calibracao;
#X msg 649 218 print lcd.pos000;
#X msg 664 261 print lcd.pos100;
#X obj 763 210 delay 20;
#X obj 773 230 delay 40;
#X obj 793 250 delay 60;
#X obj 803 270 delay 80;
#X obj 813 290 delay 100;
#X obj 601 135 t b b b b b b b;
#X obj 23 215 print posicione o violão em posição de performance
(estático) por 3 segundos;
#X msg 480 472 199;
#X msg 363 473 199;
#X msg 581 478 199;
#X msg 289 451 0;
#X msg 394 451 0;
#X msg 504 451 0;
#X connect 0 0 1 1;
#X connect 1 0 3 0;
#X connect 2 0 0 0;
#X connect 3 0 57 0;
#X connect 3 1 4 0;
#X connect 4 0 6 0;
#X connect 4 1 55 0;
#X connect 5 0 2 0;
#X connect 5 0 1 0;
#X connect 7 0 8 1;
#X connect 8 0 10 0;
#X connect 9 0 7 0;
#X connect 10 0 58 0;
#X connect 10 1 11 0;
#X connect 11 0 13 0;
#X connect 11 1 54 0;
#X connect 12 0 9 0;
#X connect 12 0 8 0;
#X connect 14 0 15 1;
#X connect 15 0 17 0;
#X connect 16 0 14 0;
#X connect 17 0 59 0;
#X connect 17 1 18 0;
#X connect 18 0 20 0;
#X connect 18 1 56 0;
#X connect 19 0 16 0;
#X connect 19 0 15 0;
#X connect 21 0 2 1;
#X connect 21 0 9 1;
#X connect 21 0 16 1;
#X connect 22 0 29 0;
#X connect 24 0 23 0;
#X connect 25 0 23 0;
#X connect 26 0 23 0;
#X connect 27 0 23 0;
#X connect 28 0 23 0;
#X connect 29 0 53 0;
#X connect 29 1 34 0;
#X connect 29 2 33 0;
#X connect 29 3 32 0;
#X connect 29 4 31 0;
#X connect 29 5 30 0;
#X connect 29 6 35 0;
#X connect 29 6 36 0;
#X connect 30 0 24 0;
#X connect 31 0 27 0;
#X connect 32 0 25 0;
#X connect 33 0 28 0;
#X connect 34 0 26 0;
#X connect 35 0 21 0;
#X connect 36 0 38 0;
#X connect 37 0 21 0;
#X connect 38 0 52 0;
#X connect 38 1 37 0;
#X connect 41 0 40 0;
#X connect 42 0 41 0;
#X connect 43 0 40 0;
#X connect 44 0 40 0;
#X connect 45 0 40 0;
#X connect 46 0 40 0;
#X connect 47 0 41 0;
#X connect 48 0 45 0;
#X connect 49 0 44 0;
#X connect 50 0 46 0;
#X connect 51 0 43 0;
#X connect 52 0 42 0;
#X connect 52 1 51 0;
#X connect 52 2 50 0;
#X connect 52 3 49 0;
#X connect 52 4 48 0;
#X connect 52 5 47 0;
#X connect 52 6 39 0;
#X connect 54 0 13 0;
#X connect 55 0 6 0;
#X connect 56 0 20 0;
#X connect 57 0 6 0;
#X connect 58 0 13 0;
#X connect 59 0 20 0;
#X restore 513 375 pd calibração;
#X text 41 616 Siga as instruções da janela do PD (hold for 3 sec)
;
#X obj -4 8 import moocow;
#X connect 0 0 3 0;
#X connect 0 1 4 0;
#X connect 0 2 5 0;
#X connect 1 0 8 0;
#X connect 3 0 85 0;
#X connect 4 0 85 1;
#X connect 5 0 85 2;
#X connect 6 0 15 0;
#X connect 12 0 18 0;
#X connect 15 0 51 0;
#X connect 18 0 71 0;
#X connect 19 0 20 0;
#X connect 21 0 22 0;
#X connect 23 0 24 0;
#X connect 30 0 33 0;
#X connect 31 0 51 0;
#X connect 32 0 51 0;
#X connect 33 0 6 0;
#X connect 33 1 31 0;
#X connect 33 2 32 0;
#X connect 37 0 38 0;
#X connect 40 0 43 0;
#X connect 41 0 51 0;
#X connect 42 0 43 1;
#X connect 43 0 41 0;
#X connect 44 0 45 0;
#X connect 45 0 40 0;
#X connect 45 1 42 0;
#X connect 51 0 12 0;
#X connect 51 1 35 0;
#X connect 53 0 52 0;
#X connect 55 0 51 0;
#X connect 61 0 62 0;
#X connect 62 0 73 0;
#X connect 63 0 65 0;
#X connect 64 0 63 0;
#X connect 65 0 61 0;
#X connect 66 0 68 0;
#X connect 67 0 69 0;
#X connect 71 0 16 0;
#X connect 71 0 1 0;
#X connect 71 1 19 0;
#X connect 71 1 25 0;
#X connect 71 2 26 0;
#X connect 71 2 21 0;
#X connect 71 3 27 0;
#X connect 71 3 23 0;
#X connect 71 4 39 0;
#X connect 71 4 37 0;
#X connect 71 5 66 0;
#X connect 71 5 70 0;
#X connect 71 6 67 0;
#X connect 71 6 72 0;
#X connect 71 7 64 0;
#X connect 71 8 17 0;
#X connect 71 8 0 0;
#X connect 73 0 75 0;
#X connect 73 0 77 0;
#X connect 73 0 76 0;
#X connect 76 0 82 0;
#X connect 79 0 78 0;
#X connect 80 0 81 0;
#X connect 82 0 74 0;
#X connect 85 0 9 0;
#X connect 85 0 56 0;
#X connect 85 0 79 0;
#X connect 85 0 83 0;
#X connect 85 1 57 0;
#X connect 85 1 10 0;
#X connect 85 1 84 0;
#X connect 85 2 58 0;
#X connect 85 2 11 0;
#X connect 85 2 80 0;
#X connect 85 2 83 1;
