#N canvas 86 23 1139 702 10;
#X obj 561 331 unpack f f f;
#X obj 34 324 tgl 15 0 empty empty empty 17 7 0 10 -262144 -1 -1 0
1;
#X text 569 431 acelerômetro;
#X floatatom 548 356 5 0 0 0 - - -, f 5;
#X floatatom 591 356 5 0 0 0 - - -, f 5;
#X floatatom 633 356 5 0 0 0 - - -, f 5;
#X obj 135 125 hradio 15 1 0 5 empty empty empty 0 -8 0 10 -262144
-1 -1 0;
#X text 216 124 selecionar a porta do arduino;
#X obj 34 349 outlet;
#X obj 544 414 outlet;
#X obj 591 414 outlet;
#X obj 638 414 outlet;
#X text 233 164 < change the numer 2 to the comport used by Arduino
;
#X text 234 176 < change the numer 9600 to the boudrate used by Arduino
;
#X msg 135 145 open \$1;
#X obj 53 323 s b1;
#X obj 572 311 s xyz;
#X obj 84 324 tgl 15 0 empty empty empty 17 7 0 10 -262144 -1 -1 0
1;
#X obj 84 349 outlet;
#X obj 134 324 tgl 15 0 empty empty empty 17 7 0 10 -262144 -1 -1 0
1;
#X obj 134 349 outlet;
#X obj 184 324 tgl 15 0 empty empty empty 17 7 0 10 -262144 -1 -1 0
1;
#X obj 184 349 outlet;
#X obj 103 323 s b2;
#X obj 153 323 s b3;
#X obj 203 323 s b4;
#X text 54 545 2-) Para comunicação podemos utilizar os OUTLETs (como
abstract) ou os SENDs;
#X text 54 503 1-) Antes de iniciar a comunicação deve-se escolher
a porta de comunicação entre o HMI e o computador (0 a 4 no hot INLET)
;
#X obj 135 42 inlet;
#X msg 94 124 close;
#X msg 53 124 ports;
#X obj 135 76 route float close ports;
#X text 284 77 deixa passar números \, PORTS e CLOSE;
#X obj 222 198 print portas disponíveis;
#X text 54 575 3-) O cold INLET envia mensagens para impressão no
painel LCD do HMI;
#X obj 234 324 tgl 15 0 empty empty empty 17 7 0 10 -262144 -1 -1 0
1;
#X obj 234 349 outlet;
#X obj 253 323 s b5;
#X msg 542 68 print;
#X obj 542 112 route list;
#X obj 587 68 pack s;
#X obj 542 90 pack s s;
#X obj 542 24 inlet;
#X obj 542 46 t b a;
#X text 633 46 lcd.clear = limpa LCD;
#X text 633 64 lcd.(X \, Y) = seleciona linha e coluna para escrita
;
#X text 582 25 Aceita comandos para exibição no LCD;
#X text 635 84 OBS: X varia de 0 a 1;
#X text 665 95 Y varia de 0 a 15;
#X obj 135 170 comport 2 57600;
#N canvas 184 103 967 534 MIDI 0;
#X obj 148 85 pack f 1 1;
#X obj 198 105 pack f 2 1;
#X obj 248 85 pack f 3 1;
#X obj 298 105 pack f 4 1;
#X obj 348 85 pack f 5 1;
#X obj 148 1 r b1;
#X obj 248 4 r b3;
#X obj 298 4 r b4;
#X obj 348 41 r b5;
#X obj 558 51 r tap;
#X obj 279 422 ctlout;
#X obj 179 287 inlet;
#X obj 69 304 spigot;
#X text 79 460 Este subpatch envia comandos MIDI para outros programas.
Não se esqueça de configurar o dispositivo de saída no PD e no computador.
;
#X text 122 306 ativa ou desativa o subpatch;
#X obj 757 233 vradio 15 1 0 11 empty empty empty 0 -8 0 10 -262144
-1 -1 0;
#X obj 381 388 spigot;
#X obj 414 369 tgl 15 0 empty empty empty 17 7 0 10 -262144 -1 -1 0
1;
#X obj 148 64 * 127;
#X obj 198 64 * 127;
#X obj 248 64 * 127;
#X obj 558 84 * 127;
#X obj 628 84 * 127;
#X text 430 367 solo mode (para configuração);
#X text 776 232 botão 1;
#X text 776 247 botão 2;
#X text 776 262 botão 3;
#X text 776 277 botão 4;
#X text 776 292 botão 5;
#X text 775 307 sensor ultrassonico;
#X text 776 322 tap;
#X text 776 337 double tap;
#X text 776 352 acelerômetro eixo X;
#X text 776 367 acelerômetro eixo Y;
#X text 776 382 acelerômetro eixo Z;
#X obj 439 415 s MIDI_ON/OFF_tgl_receive;
#X msg 439 392 0;
#X obj 628 53 r dtap;
#X obj 490 84 r ultMIDI;
#N canvas 581 228 450 300 old_XYZ 0;
#X obj 152 97 unpack f f f;
#X obj 82 133 expr ($f1+280)/4;
#X obj 163 47 r xyz;
#X obj 186 133 expr ($f1+280)/4;
#X obj 289 133 expr ($f1+280)/4;
#X obj 82 157 pack f 9 1;
#X obj 186 157 pack f 10 1;
#X obj 289 157 pack f 11 1;
#X text 93 176 normaliza em 0 ou 1 a informação enviada;
#X connect 0 0 1 0;
#X connect 0 1 3 0;
#X connect 0 2 4 0;
#X connect 1 0 5 0;
#X connect 2 0 0 0;
#X connect 3 0 6 0;
#X connect 4 0 7 0;
#X restore 778 39 pd old_XYZ;
#X obj 714 71 r X_midi;
#X obj 788 71 r Y_midi;
#X obj 348 64 * 1;
#X obj 418 11 r b5;
#X obj 418 34 sel 0;
#X obj 298 64 * 127;
#X obj 148 43 tgl 15 0 empty empty empty 17 7 0 10 -262144 -1 -1 0
1;
#X obj 148 23 sel 1;
#X obj 248 45 tgl 15 0 empty empty empty 17 7 0 10 -262144 -1 -1 0
1;
#X obj 248 25 sel 1;
#X obj 298 45 tgl 15 0 empty empty empty 17 7 0 10 -262144 -1 -1 0
1;
#X obj 298 25 sel 1;
#X obj 197 43 tgl 15 0 empty empty empty 17 7 0 10 -262144 -1 -1 0
1;
#X obj 197 23 sel 1;
#X obj 197 1 r b2;
#X obj 418 58 + 1;
#N canvas 316 224 652 315 mux 0;
#X obj 573 39 inlet;
#X obj 287 263 outlet;
#X obj 60 166 == 0;
#X obj 27 190 spigot;
#X obj 70 190 spigot;
#X obj 113 190 spigot;
#X obj 156 190 spigot;
#X obj 200 190 spigot;
#X obj 243 190 spigot;
#X obj 286 190 spigot;
#X obj 329 190 spigot;
#X obj 372 190 spigot;
#X obj 416 190 spigot;
#X obj 459 190 spigot;
#X obj 103 166 == 1;
#X obj 146 166 == 2;
#X obj 189 166 == 3;
#X obj 233 166 == 4;
#X obj 276 166 == 5;
#X obj 319 166 == 6;
#X obj 362 166 == 7;
#X obj 405 166 == 8;
#X obj 449 166 == 9;
#X obj 492 166 == 10;
#X obj 27 39 inlet;
#X obj 70 39 inlet;
#X obj 113 39 inlet;
#X obj 156 39 inlet;
#X obj 200 39 inlet;
#X obj 243 39 inlet;
#X obj 286 39 inlet;
#X obj 329 39 inlet;
#X obj 372 39 inlet;
#X obj 416 39 inlet;
#X obj 459 39 inlet;
#X obj 504 190 spigot;
#X obj 537 166 == 11;
#X obj 504 39 inlet;
#X connect 0 0 2 0;
#X connect 0 0 14 0;
#X connect 0 0 15 0;
#X connect 0 0 16 0;
#X connect 0 0 17 0;
#X connect 0 0 18 0;
#X connect 0 0 19 0;
#X connect 0 0 20 0;
#X connect 0 0 21 0;
#X connect 0 0 22 0;
#X connect 0 0 23 0;
#X connect 0 0 36 0;
#X connect 2 0 3 1;
#X connect 3 0 1 0;
#X connect 4 0 1 0;
#X connect 5 0 1 0;
#X connect 6 0 1 0;
#X connect 7 0 1 0;
#X connect 8 0 1 0;
#X connect 9 0 1 0;
#X connect 10 0 1 0;
#X connect 11 0 1 0;
#X connect 12 0 1 0;
#X connect 13 0 1 0;
#X connect 14 0 4 1;
#X connect 15 0 5 1;
#X connect 16 0 6 1;
#X connect 17 0 7 1;
#X connect 18 0 8 1;
#X connect 19 0 9 1;
#X connect 20 0 10 1;
#X connect 21 0 11 1;
#X connect 22 0 12 1;
#X connect 23 0 13 1;
#X connect 24 0 3 0;
#X connect 25 0 4 0;
#X connect 26 0 5 0;
#X connect 27 0 6 0;
#X connect 28 0 7 0;
#X connect 29 0 8 0;
#X connect 30 0 9 0;
#X connect 31 0 10 0;
#X connect 32 0 11 0;
#X connect 33 0 12 0;
#X connect 34 0 13 0;
#X connect 35 0 1 0;
#X connect 36 0 35 1;
#X connect 37 0 35 0;
#X restore 381 345 pd mux 11 -----------------------;
#X obj 863 71 r Z_midi;
#X obj 418 85 pack f 6 1;
#X obj 490 107 pack f 7 1;
#X obj 558 107 pack f 8 1;
#X obj 628 107 pack f 9 1;
#X obj 714 104 pack f 10 1;
#X obj 788 104 pack f 11 1;
#X obj 863 104 pack f 12 1;
#X connect 0 0 12 0;
#X connect 0 0 56 0;
#X connect 1 0 12 0;
#X connect 1 0 56 1;
#X connect 2 0 12 0;
#X connect 2 0 56 2;
#X connect 3 0 12 0;
#X connect 3 0 56 3;
#X connect 4 0 12 0;
#X connect 4 0 56 4;
#X connect 5 0 47 0;
#X connect 6 0 49 0;
#X connect 7 0 51 0;
#X connect 8 0 42 0;
#X connect 9 0 21 0;
#X connect 11 0 12 1;
#X connect 12 0 10 0;
#X connect 15 0 56 12;
#X connect 16 0 10 0;
#X connect 17 0 16 1;
#X connect 17 0 36 0;
#X connect 18 0 0 0;
#X connect 19 0 1 0;
#X connect 20 0 2 0;
#X connect 21 0 60 0;
#X connect 22 0 61 0;
#X connect 36 0 35 0;
#X connect 37 0 22 0;
#X connect 38 0 59 0;
#X connect 40 0 62 0;
#X connect 41 0 63 0;
#X connect 42 0 4 0;
#X connect 43 0 44 0;
#X connect 44 0 55 0;
#X connect 45 0 3 0;
#X connect 46 0 18 0;
#X connect 47 0 46 0;
#X connect 48 0 20 0;
#X connect 49 0 48 0;
#X connect 50 0 45 0;
#X connect 51 0 50 0;
#X connect 52 0 19 0;
#X connect 53 0 52 0;
#X connect 54 0 53 0;
#X connect 55 0 58 0;
#X connect 56 0 16 0;
#X connect 57 0 64 0;
#X connect 58 0 12 0;
#X connect 58 0 56 5;
#X connect 59 0 12 0;
#X connect 59 0 56 6;
#X connect 60 0 12 0;
#X connect 60 0 56 7;
#X connect 61 0 12 0;
#X connect 61 0 56 8;
#X connect 62 0 12 0;
#X connect 62 0 56 9;
#X connect 63 0 12 0;
#X connect 63 0 56 10;
#X connect 64 0 56 11;
#X restore 405 37 pd MIDI;
#X obj 405 17 tgl 15 0 MIDI_ON/OFF_tgl_send MIDI_ON/OFF_tgl_receive
empty 17 7 0 10 -262144 -1 -1 0 1;
#X text 423 15 ON/OFF;
#N canvas 390 42 809 375 calibração 0;
#X obj 58 75 expr ((($f1-$f2)*(200-0))/($f3-$f2))+0;
#X text 66 235 $f1 = leitura do acelerômetro;
#X text 66 247 $f2 = calibragem mínima;
#X text 66 259 $f3 = calibragem máxima;
#X obj 38 113 outlet;
#X obj 58 24 inlet;
#X obj 295 24 inlet;
#X obj 533 24 inlet;
#X obj 295 75 expr ((($f1-$f2)*(200-0))/($f3-$f2))+0;
#X obj 295 113 outlet;
#X obj 533 75 expr ((($f1-$f2)*(200-0))/($f3-$f2))+0;
#X obj 533 113 outlet;
#N canvas 121 136 1052 310 calib 0;
#X obj 85 34 r calibracaobng_s;
#X obj 38 247 print posicione o violão em posição de performance
(estático) e pressione o botão 1 do GuitarAMI;
#X obj 83 227 s msg_LCD;
#X msg 89 122 print lcd.clear;
#X obj 479 38 r b1;
#X obj 479 79 spigot;
#X msg 207 62 1;
#X obj 512 103 r z;
#X obj 479 120 f;
#X msg 541 79 0;
#X msg 511 168 1;
#X text 106 10 1-) avisa inicio de calib;
#X text 461 18 2-) captura min de Z;
#X obj 468 168 t b b;
#X obj 479 142 s calib_z_min;
#X obj 792 88 spigot;
#X obj 825 112 r z;
#X obj 792 129 f;
#X msg 854 88 0;
#X obj 781 176 t b b;
#X obj 792 151 s calib_z_max;
#X text 778 16 3-) captura max de Z;
#X obj 448 99 t b b b;
#X obj 771 108 t b b b;
#X msg 824 188 1;
#X obj 406 190 print afaste o violão do corpo e pressione o botão
1 do GuitarAMI;
#X obj 1012 74 spigot;
#X obj 1012 115 f;
#X msg 1066 74 0;
#X obj 1001 162 t b b;
#X obj 991 94 t b b b;
#X msg 1044 174 1;
#X obj 1045 98 r y;
#X obj 1012 137 s calib_y_min;
#X obj 1192 74 spigot;
#X obj 1192 115 f;
#X msg 1246 74 0;
#X obj 1181 162 t b b;
#X obj 1171 94 t b b b;
#X msg 1224 174 1;
#X obj 1225 98 r y;
#X text 1015 12 4-) Y min;
#X obj 874 209 print mova a mão do violão para cima e pressione o
botão 1 do GuitarAMI;
#X obj 734 249 print mova a mão do violão para baixo e pressione
o botão 1 do GuitarAMI;
#X obj 1192 137 s calib_y_max;
#X obj 1362 74 spigot;
#X obj 1362 115 f;
#X msg 1416 74 0;
#X obj 1351 162 t b b;
#X obj 1341 94 t b b b;
#X msg 1394 174 1;
#X text 1195 9 5-) Y max;
#X text 1365 9 6-) X min;
#X obj 1104 249 print mova a mão do violão para trás e pressione
o botão 1 do GuitarAMI;
#X obj 1395 98 r x;
#X obj 1362 137 s calib_x_min;
#X obj 1522 74 spigot;
#X obj 1522 115 f;
#X msg 1576 74 0;
#X obj 1501 94 t b b b;
#X obj 1555 98 r x;
#X obj 1522 137 s calib_x_min;
#X obj 1234 209 print mova a mão do violão para frente e pressione
o botão 1 do GuitarAMI;
#X text 1525 9 7-) X max;
#X text 1720 19 8-) concluido;
#X obj 1783 94 print calibração do acelerômetro concluída.;
#X obj 1768 223 s msg_LCD;
#X msg 1768 117 print lcd.clear;
#X obj 1689 89 delay 2500;
#X obj 479 58 sel 1;
#X obj 792 42 r b1;
#X obj 792 62 sel 1;
#X obj 1012 30 r b1;
#X obj 1012 50 sel 1;
#X obj 1192 31 r b1;
#X obj 1192 51 sel 1;
#X obj 1362 30 r b1;
#X obj 1362 50 sel 1;
#X obj 1521 31 r b1;
#X obj 1521 51 sel 1;
#X msg 113 164 print modo_de;
#X msg 130 206 print calibracao;
#X msg 1808 199 print concluida;
#X msg 1788 160 print calibracao;
#X msg 101 142 print lcd.pos000;
#X msg 123 184 print lcd.pos100;
#X msg 1780 137 print lcd.pos000;
#X msg 1795 180 print lcd.pos100;
#X obj 85 59 t b b b b b b b;
#X obj 193 95 delay 20;
#X obj 203 115 delay 40;
#X obj 223 135 delay 60;
#X obj 233 155 delay 80;
#X obj 243 175 delay 100;
#X obj 1894 129 delay 20;
#X obj 1904 149 delay 40;
#X obj 1924 169 delay 60;
#X obj 1934 189 delay 80;
#X obj 1944 209 delay 100;
#X obj 1732 54 t b b b b b b b;
#X connect 0 0 88 0;
#X connect 3 0 2 0;
#X connect 4 0 69 0;
#X connect 5 0 22 0;
#X connect 6 0 5 1;
#X connect 7 0 8 1;
#X connect 8 0 14 0;
#X connect 9 0 5 1;
#X connect 10 0 15 1;
#X connect 13 0 25 0;
#X connect 13 1 10 0;
#X connect 15 0 23 0;
#X connect 16 0 17 1;
#X connect 17 0 20 0;
#X connect 18 0 15 1;
#X connect 19 0 43 0;
#X connect 19 1 24 0;
#X connect 22 0 13 0;
#X connect 22 1 9 0;
#X connect 22 2 8 0;
#X connect 23 0 19 0;
#X connect 23 1 18 0;
#X connect 23 2 17 0;
#X connect 24 0 26 1;
#X connect 26 0 30 0;
#X connect 27 0 33 0;
#X connect 28 0 26 1;
#X connect 29 0 42 0;
#X connect 29 1 31 0;
#X connect 30 0 29 0;
#X connect 30 1 28 0;
#X connect 30 2 27 0;
#X connect 31 0 34 1;
#X connect 32 0 27 1;
#X connect 34 0 38 0;
#X connect 35 0 44 0;
#X connect 36 0 34 1;
#X connect 37 0 53 0;
#X connect 37 1 39 0;
#X connect 38 0 37 0;
#X connect 38 1 36 0;
#X connect 38 2 35 0;
#X connect 39 0 45 1;
#X connect 40 0 35 1;
#X connect 45 0 49 0;
#X connect 46 0 55 0;
#X connect 47 0 45 1;
#X connect 48 0 62 0;
#X connect 48 1 50 0;
#X connect 49 0 48 0;
#X connect 49 1 47 0;
#X connect 49 2 46 0;
#X connect 50 0 56 1;
#X connect 54 0 46 1;
#X connect 56 0 59 0;
#X connect 57 0 61 0;
#X connect 58 0 56 1;
#X connect 59 0 99 0;
#X connect 59 1 58 0;
#X connect 59 2 57 0;
#X connect 60 0 57 1;
#X connect 67 0 66 0;
#X connect 68 0 67 0;
#X connect 69 0 5 0;
#X connect 70 0 71 0;
#X connect 71 0 15 0;
#X connect 72 0 73 0;
#X connect 73 0 26 0;
#X connect 74 0 75 0;
#X connect 75 0 34 0;
#X connect 76 0 77 0;
#X connect 77 0 45 0;
#X connect 78 0 79 0;
#X connect 79 0 56 0;
#X connect 80 0 2 0;
#X connect 81 0 2 0;
#X connect 82 0 66 0;
#X connect 83 0 66 0;
#X connect 84 0 2 0;
#X connect 85 0 2 0;
#X connect 86 0 66 0;
#X connect 87 0 66 0;
#X connect 88 0 1 0;
#X connect 88 1 93 0;
#X connect 88 2 92 0;
#X connect 88 3 91 0;
#X connect 88 4 90 0;
#X connect 88 5 89 0;
#X connect 88 6 6 0;
#X connect 89 0 3 0;
#X connect 90 0 84 0;
#X connect 91 0 80 0;
#X connect 92 0 85 0;
#X connect 93 0 81 0;
#X connect 94 0 67 0;
#X connect 95 0 86 0;
#X connect 96 0 83 0;
#X connect 97 0 87 0;
#X connect 98 0 82 0;
#X connect 99 0 68 0;
#X connect 99 1 98 0;
#X connect 99 2 97 0;
#X connect 99 3 96 0;
#X connect 99 4 95 0;
#X connect 99 5 94 0;
#X connect 99 6 65 0;
#X restore 636 264 pd calib;
#X obj 594 50 r calib_z_min;
#X obj 684 50 r calib_z_max;
#X obj 444 50 r calib_y_max;
#X obj 354 50 r calib_y_min;
#X obj 114 50 r calib_x_min;
#X obj 204 50 r calib_x_max;
#X obj 582 -53 loadbang;
#X msg 582 -30 1;
#X msg 618 -30;
#X msg 618 -30 2;
#X obj 38 53 / 1.5;
#X text 349 178 a calibração está setada de 0 a 199;
#X connect 5 0 23 0;
#X connect 6 0 8 0;
#X connect 7 0 10 0;
#X connect 8 0 9 0;
#X connect 10 0 11 0;
#X connect 13 0 10 1;
#X connect 14 0 10 2;
#X connect 15 0 8 2;
#X connect 16 0 8 1;
#X connect 17 0 0 1;
#X connect 18 0 0 2;
#X connect 19 0 21 0;
#X connect 19 0 20 0;
#X connect 20 0 0 1;
#X connect 20 0 8 1;
#X connect 20 0 10 1;
#X connect 21 0 0 2;
#X connect 21 0 8 2;
#X connect 21 0 10 2;
#X connect 23 0 4 0;
#X restore 708 394 pd calibração;
#X obj 19 153 r msg_LCD;
#X obj 562 394 s x;
#X obj 609 394 s y;
#X obj 656 394 s z;
#X obj 53 612 bng 25 250 50 0 calibracaobng_s calibracaobng_r empty
17 7 0 10 -262144 -1 -1;
#X text 82 609 BANG para iniciar a calibração do acelerômetro;
#X text 82 623 Siga as instruções da janela do PD;
#X obj 409 390 line;
#X obj 409 412 i;
#X obj 409 346 - 3000;
#X obj 409 324 clip 3000 15700;
#X obj 409 368 pack f 50;
#X obj 285 324 tgl 15 0 empty empty empty 17 7 0 10 -262144 -1 -1 0
1;
#X obj 343 324 tgl 15 0 empty empty empty 17 7 0 10 -262144 -1 -1 0
1;
#X obj 285 349 outlet;
#X obj 343 349 outlet;
#X obj 305 323 s tap;
#X obj 135 247 route /botao1 /botao2 /botao3 /botao4 /botao5 /tap /dtap
/ult /XYZ;
#X obj 363 324 s dtap;
#X floatatom 409 433 5 0 0 0 - - -, f 5;
#X obj 451 508 s ultMIDI;
#X obj 409 456 s ult;
#X obj 451 456 / 100;
#X obj 394 478 outlet;
#X obj 708 467 s X_midi;
#X obj 708 442 / 2;
#X obj 745 417 / 2;
#X obj 745 442 s Y_midi;
#X obj 451 479 i;
#N canvas 235 82 648 415 xy 0;
#X obj 53 53 cnv 15 200 200 \$0-xy_fundo_send \$0-xy_fundo_r empty
20 12 0 14 -233017 -66577 0;
#X obj 53 153 cnv 3 200 2 \$0-xy_y_send \$0-xy_y_r empty 20 12 0 14
-1 -262144 0;
#X obj 153 53 cnv 3 2 200 \$0-xy_x_send \$0-xy_x_r empty 20 12 0 14
-1 -66577 0;
#X obj 344 103 inlet;
#X obj 484 103 inlet;
#X floatatom 344 164 5 53 253 0 - - -, f 5;
#X obj 344 208 pack \$0 f;
#X msg 484 228 \; \$1-xy_y_r pos 53 \$2;
#X obj 484 208 pack \$0 f;
#X msg 344 228 \; \$1-xy_x_r pos \$2 53;
#X obj 344 186 t b f;
#X floatatom 484 164 5 53 253 0 - - -, f 5;
#X obj 484 186 t b f;
#X text 352 68 inserir X e Y entre 0 e 199;
#X obj 344 139 + 53;
#X obj 484 139 + 53;
#X obj 411 97 loadbang;
#X msg 411 120 153;
#X text 250 329 Edu Meneses (2015);
#X text 239 357 Released under GNU GPL;
#X text 250 343 www.edumeneses.com;
#X connect 3 0 14 0;
#X connect 4 0 15 0;
#X connect 5 0 10 0;
#X connect 6 0 9 0;
#X connect 8 0 7 0;
#X connect 10 0 6 0;
#X connect 10 1 6 1;
#X connect 11 0 12 0;
#X connect 12 0 8 0;
#X connect 12 1 8 1;
#X connect 14 0 5 0;
#X connect 15 0 11 0;
#X connect 16 0 17 0;
#X connect 17 0 11 0;
#X connect 17 0 5 0;
#X coords 0 -1 1 1 206 206 2 50 50;
#X restore 834 411 pd xy;
#X obj 837 391 hsl 200 15 0 199 0 0 empty empty empty -2 -8 0 10 -262144
-1 -1 0 1;
#N canvas 628 84 590 395 conversao_ASCII 0;
#X obj 99 77 sel 10;
#X obj 166 30 inlet;
#X obj 166 77 route 10;
#X msg 99 251 HT BEL ACK ENQ EOT ETX;
#X msg 132 104 0;
#X msg 63 104 1;
#X obj 47 324 outlet;
#X obj 47 299 spigot;
#N canvas 217 212 450 300 list-extend 0;
#X obj 87 51 inlet;
#X obj 166 76 inlet;
#X obj 87 267 outlet;
#X text 82 31 add new elements to stored list and output it;
#X text 166 57 set stored list \, no output;
#X obj 87 163 list prepend;
#X obj 182 163 t a;
#X connect 0 0 5 0;
#X connect 1 0 5 1;
#X connect 5 0 6 0;
#X connect 5 0 2 0;
#X connect 6 0 5 1;
#X restore 124 180 pd list-extend;
#X obj 124 205 list prepend set;
#X obj 124 227 route list;
#N canvas 327 36 534 358 tabela_ASCII 0;
#X obj 34 225 list split 1;
#X obj 68 248 list split 1;
#X obj 76 48 t b f;
#X msg 122 76 list NUL SOH STX ETX EOT ENQ ACK BEL BS HT LF VT FF CR
SO SI DLE D1 D2 D3 D4 NAK SYN ETB CAN EM SUB ESC FS GS RS US Espaço
! " # $ % & ' ( ) * + COMMA - . / 0 1 2 3 4 5 6 7 8 9 COLON SEMICOLON
< = > ? @ A B C D E F G H I J K L M N O P Q R S T U V W X Y Z [ ] ^
_ ` a b c d e f g h i j k l m n o p q r s t u v w x y z | ~ DELETE
€   ‚ ƒ „ … † ‡ ˆ ‰ Š ‹ Œ   Ž     ‘ ’
“ ” • – — ˜ ™ š › œ   ž Ÿ   ¡ ¢ £ ¤ ¥ ¦
§ ¨ © ª « ¬ ® ¯ ° ± ² ³ ´ µ ¶ · ¸ ¹ º » ¼ ½ ¾
¿ À Á Â Ã Ä Å Æ Ç È É Ê Ë Ì Í Î Ï Ð Ñ Ò Ó Ô Õ
Ö × Ø Ù Ú Û Ü Ý Þ ß à á â ã ä å æ ç è é ê ë ì
í î ï ð ñ ò ó ô õ ö ÷ ø ù ú û ü ý þ ÿ;
#X obj 68 287 outlet;
#X obj 76 22 inlet;
#X connect 0 1 1 0;
#X connect 1 0 4 0;
#X connect 2 0 3 0;
#X connect 2 1 0 1;
#X connect 3 0 0 0;
#X connect 5 0 2 0;
#X restore 211 109 pd tabela_ASCII;
#X connect 0 0 5 0;
#X connect 0 0 3 0;
#X connect 0 0 8 1;
#X connect 0 1 4 0;
#X connect 1 0 0 0;
#X connect 1 0 2 0;
#X connect 2 1 11 0;
#X connect 3 0 7 0;
#X connect 4 0 7 1;
#X connect 5 0 7 1;
#X connect 7 0 6 0;
#X connect 8 0 9 0;
#X connect 9 0 10 0;
#X connect 10 0 3 0;
#X connect 11 0 8 0;
#X restore 135 222 pd conversao_ASCII;
#X connect 0 0 3 0;
#X connect 0 1 4 0;
#X connect 0 2 5 0;
#X connect 1 0 8 0;
#X connect 3 0 9 0;
#X connect 3 0 53 0;
#X connect 3 0 55 0;
#X connect 4 0 10 0;
#X connect 4 0 53 1;
#X connect 4 0 56 0;
#X connect 5 0 11 0;
#X connect 5 0 53 2;
#X connect 5 0 57 0;
#X connect 6 0 14 0;
#X connect 14 0 49 0;
#X connect 17 0 18 0;
#X connect 19 0 20 0;
#X connect 21 0 22 0;
#X connect 28 0 31 0;
#X connect 29 0 49 0;
#X connect 30 0 49 0;
#X connect 31 0 6 0;
#X connect 31 1 29 0;
#X connect 31 2 30 0;
#X connect 35 0 36 0;
#X connect 38 0 41 0;
#X connect 39 0 49 0;
#X connect 40 0 41 1;
#X connect 41 0 39 0;
#X connect 42 0 43 0;
#X connect 43 0 38 0;
#X connect 43 1 40 0;
#X connect 49 0 85 0;
#X connect 49 1 33 0;
#X connect 51 0 50 0;
#X connect 53 0 83 0;
#X connect 53 0 79 0;
#X connect 53 1 83 1;
#X connect 53 1 80 0;
#X connect 53 2 84 0;
#X connect 54 0 49 0;
#X connect 61 0 62 0;
#X connect 62 0 73 0;
#X connect 63 0 65 0;
#X connect 64 0 63 0;
#X connect 65 0 61 0;
#X connect 66 0 68 0;
#X connect 67 0 69 0;
#X connect 71 0 15 0;
#X connect 71 0 1 0;
#X connect 71 1 17 0;
#X connect 71 1 23 0;
#X connect 71 2 24 0;
#X connect 71 2 19 0;
#X connect 71 3 25 0;
#X connect 71 3 21 0;
#X connect 71 4 37 0;
#X connect 71 4 35 0;
#X connect 71 5 66 0;
#X connect 71 5 70 0;
#X connect 71 6 67 0;
#X connect 71 6 72 0;
#X connect 71 7 64 0;
#X connect 71 8 16 0;
#X connect 71 8 0 0;
#X connect 73 0 75 0;
#X connect 73 0 77 0;
#X connect 73 0 76 0;
#X connect 76 0 82 0;
#X connect 79 0 78 0;
#X connect 80 0 81 0;
#X connect 82 0 74 0;
#X connect 85 0 71 0;
