#N canvas 1501 599 450 300 10;
#X obj 80 57 inlet;
#X obj 110 132 f;
#X obj 80 132 max;
#X obj 80 98 t f b;
#X obj 80 153 outlet;
#X obj 129 39 inlet;
#X msg 130 73 -1e+09;
#X msg 180 73 1e+09;
#X obj 170 132 f;
#X obj 140 98 t f b;
#X obj 140 153 outlet;
#X obj 140 132 min;
#X connect 0 0 3 0;
#X connect 0 0 9 0;
#X connect 1 0 2 1;
#X connect 2 0 1 1;
#X connect 2 0 4 0;
#X connect 3 0 2 0;
#X connect 3 1 1 0;
#X connect 5 0 6 0;
#X connect 5 0 7 0;
#X connect 6 0 1 1;
#X connect 7 0 8 1;
#X connect 8 0 11 1;
#X connect 9 0 11 0;
#X connect 9 1 8 0;
#X connect 11 0 8 1;
#X connect 11 0 10 0;
