#N canvas 584 71 638 573 10;
#X declare -lib moocow;
#X obj 152 92 Env-shaper~;
#X obj 296 95 freeze~;
#X obj 254 310 dsp-panic~;
#X obj 260 15 adc~ 2;
#X obj 40 377 cnv 15 570 170 empty empty Mapeamento 20 12 0 14 -233017
-66577 0;
#X obj 93 502 s mapping_commands;
#X msg 43 471 env_shaper bypass \$1;
#X obj 93 405 r b1;
#X obj 93 428 sel 1;
#X msg 216 450 env_shaper control \$1;
#X obj 216 427 / 134;
#X obj 355 427 sel 1;
#X msg 355 450 freeze freeze bang;
#X obj 216 404 r z;
#X obj 355 404 r b5;
#X obj 475 427 sel 1;
#X obj 475 404 r b4;
#X obj 364 496 sel 1;
#X obj 364 476 r b3;
#X obj 43 406 r b2;
#X obj 544 523 guitarAMI;
#X msg 475 450 freeze circular bang;
#X msg 364 515 freeze oneshot bang;
#X obj 43 449 count 2;
#X obj 43 427 sel 1;
#X msg 93 450 env_shaper 0db bang;
#X connect 0 0 2 0;
#X connect 0 1 2 1;
#X connect 1 0 2 1;
#X connect 1 0 2 0;
#X connect 3 0 0 0;
#X connect 3 0 1 0;
#X connect 6 0 5 0;
#X connect 7 0 8 0;
#X connect 8 0 25 0;
#X connect 9 0 5 0;
#X connect 10 0 9 0;
#X connect 11 0 12 0;
#X connect 12 0 5 0;
#X connect 13 0 10 0;
#X connect 14 0 11 0;
#X connect 15 0 21 0;
#X connect 16 0 15 0;
#X connect 17 0 22 0;
#X connect 18 0 17 0;
#X connect 19 0 24 0;
#X connect 21 0 5 0;
#X connect 22 0 5 0;
#X connect 23 0 6 0;
#X connect 24 0 23 0;
#X connect 25 0 5 0;
