#N canvas 349 56 889 616 10;
#X obj 253 153 cnv 15 248 125 empty empty Síntese_Aditiva 120 12 0
14 -233017 -66577 0;
#X floatatom 110 254 5 0 0 0 - - -, f 5;
#X obj 50 360 * 1;
#X obj 80 360 * 2;
#X obj 110 360 * 3;
#X obj 140 360 * 4;
#X obj 170 360 * 5;
#X obj 200 360 * 6;
#X obj 230 360 * 7;
#X obj 260 360 * 8;
#X obj 290 360 * 9;
#X obj 320 360 * 10;
#X obj 350 360 * 11;
#X obj 380 360 * 12;
#X obj 410 360 * 13;
#X obj 50 388 osc~;
#X obj 96 208 inlet;
#X obj 267 210 vsl 15 50 0 1 0 0 \$0-sintese_aditiva_F_r \$0-sintese_aditiva_F_s
F 6 25 0 10 -16793 -262144 -262144 4900 1;
#X obj 80 388 osc~;
#X obj 284 210 vsl 15 50 0 1 0 0 \$0-sintese_aditiva_P2_r \$0-sintese_aditiva_P2_s
P2 3 25 0 10 -25190 -262144 -262144 0 1;
#X obj 110 388 osc~;
#X obj 301 210 vsl 15 50 0 1 0 0 \$0-sintese_aditiva_P3_r \$0-sintese_aditiva_P3_s
P3 3 25 0 10 -33517 -262144 -262144 0 1;
#X obj 140 388 osc~;
#X obj 318 210 vsl 15 50 0 1 0 0 \$0-sintese_aditiva_P4_r \$0-sintese_aditiva_P4_s
P4 3 25 0 10 -33585 -262144 -262144 0 1;
#X obj 170 388 osc~;
#X obj 335 210 vsl 15 50 0 1 0 0 \$0-sintese_aditiva_P5_r \$0-sintese_aditiva_P5_s
P5 3 25 0 10 -33653 -262144 -262144 0 1;
#X obj 200 388 osc~;
#X obj 352 210 vsl 15 50 0 1 0 0 \$0-sintese_aditiva_P6_r \$0-sintese_aditiva_P6_s
P6 3 25 0 10 -37817 -262144 -262144 0 1;
#X obj 230 388 osc~;
#X obj 369 210 vsl 15 50 0 1 0 0 \$0-sintese_aditiva_P7_r \$0-sintese_aditiva_P7_s
P7 3 25 0 10 -37821 -262144 -262144 0 1;
#X obj 260 388 osc~;
#X obj 386 210 vsl 15 50 0 1 0 0 \$0-sintese_aditiva_P8_r \$0-sintese_aditiva_P8_s
P8 3 25 0 10 -37887 -262144 -262144 0 1;
#X obj 290 388 osc~;
#X obj 403 210 vsl 15 50 0 1 0 0 \$0-sintese_aditiva_P9_r \$0-sintese_aditiva_P9_s
P9 3 25 0 10 -2103 -262144 -262144 0 1;
#X obj 320 388 osc~;
#X obj 420 210 vsl 15 50 0 1 0 0 \$0-sintese_aditiva_P10_r \$0-sintese_aditiva_P10_s
10 3 25 0 10 -2235 -262144 -262144 0 1;
#X obj 350 388 osc~;
#X obj 437 210 vsl 15 50 0 1 0 0 \$0-sintese_aditiva_P11_r \$0-sintese_aditiva_P11_s
11 3 25 0 10 -2368 -262144 -262144 0 1;
#X obj 380 388 osc~;
#X obj 454 210 vsl 15 50 0 1 0 0 \$0-sintese_aditiva_P12_r \$0-sintese_aditiva_P12_s
12 3 25 0 10 -3264 -262144 -262144 0 1;
#X obj 410 388 osc~;
#X obj 471 210 vsl 15 50 0 1 0 0 \$0-sintese_aditiva_P13_r \$0-sintese_aditiva_P13_s
13 3 25 0 10 -3776 -262144 -262144 0 1;
#X obj 50 413 *~;
#X obj 80 413 *~;
#X obj 110 413 *~;
#X obj 140 413 *~;
#X obj 170 413 *~;
#X obj 200 413 *~;
#X obj 230 413 *~;
#X obj 260 413 *~;
#X obj 290 413 *~;
#X obj 320 413 *~;
#X obj 350 413 *~;
#X obj 380 413 *~;
#X obj 410 413 *~;
#X obj 223 494 *~;
#X obj 280 549 outlet~;
#X obj 270 182 hsl 128 20 0 0.5 0 0 \$0-sintese_aditiva_volume_r \$0-sintese_aditiva_volume_s
volume 45 8 0 10 -262144 -1 -1 6350 1;
#X text 37 188 Entrada: frequencia fundamental;
#X obj 417 179 bng 25 250 50 0 \$0-sintese_aditiva_Random_r \$0-sintese_aditiva_Random_s
Random 28 12 0 12 -260097 -1 -202305;
#X obj 498 17 t b b b b b b b b b b b b b;
#X obj 361 95 / 100;
#X obj 230 85 loadbang;
#X msg 230 116 0.25;
#X obj 568 69 random 50;
#X msg 199 116 1;
#X obj 267 157 tgl 20 0 \$0-sintese_aditiva_ON/OFF_r \$0-sintese_aditiva_ON/OFF_s
ON/OFF 23 10 0 12 -4033 -13381 -13381 0 1;
#N canvas 760 227 201 228 spigot~ 0;
#X obj 98 26 inlet;
#X obj 45 26 inlet~;
#X obj 86 176 outlet~;
#X obj 36 176 outlet~;
#X obj 96 104 == 0;
#X obj 45 125 *~ 0;
#X obj 81 125 *~ 0;
#X obj 105 46 loadbang;
#X msg 105 68 0;
#X connect 0 0 4 0;
#X connect 0 0 5 1;
#X connect 1 0 5 0;
#X connect 1 0 6 0;
#X connect 4 0 6 1;
#X connect 5 0 2 0;
#X connect 6 0 3 0;
#X connect 7 0 8 0;
#X connect 8 0 4 0;
#X connect 8 0 5 1;
#X restore 223 520 pd spigot~;
#N canvas 460 321 641 268 demux 0;
#X obj 27 39 inlet;
#X obj 578 39 inlet;
#X obj 27 213 outlet;
#X obj 60 166 == 0;
#X obj 27 190 spigot;
#X obj 70 213 outlet;
#X obj 70 190 spigot;
#X obj 113 213 outlet;
#X obj 113 190 spigot;
#X obj 156 213 outlet;
#X obj 156 190 spigot;
#X obj 200 213 outlet;
#X obj 200 190 spigot;
#X obj 243 213 outlet;
#X obj 243 190 spigot;
#X obj 286 213 outlet;
#X obj 286 190 spigot;
#X obj 329 213 outlet;
#X obj 329 190 spigot;
#X obj 372 213 outlet;
#X obj 372 190 spigot;
#X obj 416 213 outlet;
#X obj 416 190 spigot;
#X obj 459 213 outlet;
#X obj 459 190 spigot;
#X obj 502 213 outlet;
#X obj 502 190 spigot;
#X obj 545 213 outlet;
#X obj 545 190 spigot;
#X obj 103 166 == 1;
#X obj 146 166 == 2;
#X obj 189 166 == 3;
#X obj 233 166 == 4;
#X obj 276 166 == 5;
#X obj 319 166 == 6;
#X obj 362 166 == 7;
#X obj 405 166 == 8;
#X obj 449 166 == 9;
#X obj 492 166 == 10;
#X obj 535 166 == 11;
#X obj 578 166 == 12;
#X connect 0 0 4 0;
#X connect 0 0 6 0;
#X connect 0 0 8 0;
#X connect 0 0 10 0;
#X connect 0 0 12 0;
#X connect 0 0 14 0;
#X connect 0 0 16 0;
#X connect 0 0 18 0;
#X connect 0 0 20 0;
#X connect 0 0 22 0;
#X connect 0 0 24 0;
#X connect 0 0 26 0;
#X connect 0 0 28 0;
#X connect 1 0 3 0;
#X connect 1 0 29 0;
#X connect 1 0 30 0;
#X connect 1 0 31 0;
#X connect 1 0 32 0;
#X connect 1 0 33 0;
#X connect 1 0 34 0;
#X connect 1 0 35 0;
#X connect 1 0 36 0;
#X connect 1 0 37 0;
#X connect 1 0 38 0;
#X connect 1 0 39 0;
#X connect 1 0 40 0;
#X connect 3 0 4 1;
#X connect 4 0 2 0;
#X connect 6 0 5 0;
#X connect 8 0 7 0;
#X connect 10 0 9 0;
#X connect 12 0 11 0;
#X connect 14 0 13 0;
#X connect 16 0 15 0;
#X connect 18 0 17 0;
#X connect 20 0 19 0;
#X connect 22 0 21 0;
#X connect 24 0 23 0;
#X connect 26 0 25 0;
#X connect 28 0 27 0;
#X connect 29 0 6 1;
#X connect 30 0 8 1;
#X connect 31 0 10 1;
#X connect 32 0 12 1;
#X connect 33 0 14 1;
#X connect 34 0 16 1;
#X connect 35 0 18 1;
#X connect 36 0 20 1;
#X connect 37 0 22 1;
#X connect 38 0 24 1;
#X connect 39 0 26 1;
#X connect 40 0 28 1;
#X restore 361 124 pd demux 13 -----------------------;
#N canvas 568 320 173 202 counter 0;
#X obj 25 73 f;
#X obj 95 80 + 1;
#X obj 95 102 mod 13;
#X obj 25 18 inlet;
#X obj 25 48 bng 15 250 50 0 empty empty empty 17 7 0 10 -262144 -1
-1;
#X obj 25 128 outlet;
#X connect 0 0 1 0;
#X connect 0 0 5 0;
#X connect 1 0 2 0;
#X connect 2 0 0 1;
#X connect 3 0 4 0;
#X connect 4 0 0 0;
#X restore 568 98 pd counter 13;
#X text 50 22 Edu Meneses (2015);
#X text 39 50 Released under GNU GPL;
#X text 50 36 www.edumeneses.com;
#X obj 529 362 cnv 15 330 90 empty empty patch_mapping_Sintese_Aditiva
20 12 0 14 -232576 -66577 0;
#X text 473 264 v1.0;
#X obj 540 403 r mapping_commands;
#X symbolatom 729 403 15 0 0 2 address #0-sintese_aditiva_patch_mapping_default
-, f 15;
#N canvas 20 27 570 563 patch_mapping_sintese_aditiva 0;
#X obj 46 64 inlet;
#X msg 46 156 1;
#X msg 89 157 0;
#X obj 121 64 inlet;
#X obj 293 47 loadbang;
#N canvas 213 95 369 403 frequencies 0;
#X obj 50 43 inlet;
#X obj 50 70 unpack f f f f f f f f f f f f f;
#X obj 76 120 s \$0-sintese_aditiva_F_s;
#X obj 86 140 s \$0-sintese_aditiva_P2_s;
#X obj 96 160 s \$0-sintese_aditiva_P3_s;
#X obj 106 180 s \$0-sintese_aditiva_P4_s;
#X obj 116 200 s \$0-sintese_aditiva_P5_s;
#X obj 126 220 s \$0-sintese_aditiva_P6_s;
#X obj 136 240 s \$0-sintese_aditiva_P7_s;
#X obj 146 260 s \$0-sintese_aditiva_P8_s;
#X obj 156 280 s \$0-sintese_aditiva_P9_s;
#X obj 166 300 s \$0-sintese_aditiva_P10_s;
#X obj 176 320 s \$0-sintese_aditiva_P11_s;
#X obj 186 340 s \$0-sintese_aditiva_P12_s;
#X obj 196 360 s \$0-sintese_aditiva_P13_s;
#X connect 0 0 1 0;
#X connect 1 0 2 0;
#X connect 1 1 3 0;
#X connect 1 2 4 0;
#X connect 1 3 5 0;
#X connect 1 4 6 0;
#X connect 1 5 7 0;
#X connect 1 6 8 0;
#X connect 1 7 9 0;
#X connect 1 8 10 0;
#X connect 1 9 11 0;
#X connect 1 10 12 0;
#X connect 1 11 13 0;
#X connect 1 12 14 0;
#X restore 167 162 pd frequencies;
#X obj 46 184 s \$0-sintese_aditiva_ON/OFF_s;
#X obj 208 228 s \$0-sintese_aditiva_volume_s;
#X obj 126 206 s \$0-sintese_aditiva_Random_s;
#X obj 46 92 route sintese_aditiva;
#X obj 46 130 route on off random freq_list volume freq;
#X obj 314 451 s;
#X msg 314 384 symbol \$1-sintese_aditiva_P\$2_s;
#X msg 293 71 set sintese_aditiva;
#X obj 293 98 s \$0-sintese_aditiva_patch_mapping_default;
#X obj 314 430 f;
#X obj 314 405 t b a;
#X obj 248 254 unpack f f;
#X obj 287 319 sel 1;
#X obj 248 298 moses 1;
#X obj 248 275 moses 14;
#X obj 314 362 pack \$0 f;
#X obj 314 340 t b f;
#X msg 114 384 symbol \$1-sintese_aditiva_F_s;
#X obj 114 361 pack \$0;
#X connect 0 0 9 0;
#X connect 1 0 6 0;
#X connect 2 0 6 0;
#X connect 3 0 9 1;
#X connect 4 0 13 0;
#X connect 9 0 10 0;
#X connect 10 0 1 0;
#X connect 10 1 2 0;
#X connect 10 2 8 0;
#X connect 10 3 5 0;
#X connect 10 4 7 0;
#X connect 10 5 17 0;
#X connect 12 0 16 0;
#X connect 13 0 14 0;
#X connect 15 0 11 0;
#X connect 16 0 15 0;
#X connect 16 1 11 1;
#X connect 17 0 20 0;
#X connect 17 1 15 1;
#X connect 18 0 24 0;
#X connect 18 1 22 0;
#X connect 19 1 18 0;
#X connect 20 0 19 0;
#X connect 21 0 12 0;
#X connect 22 0 21 0;
#X connect 22 1 21 1;
#X connect 23 0 16 0;
#X connect 24 0 23 0;
#X restore 540 424 pd patch_mapping_sintese_aditiva;
#N canvas 771 45 472 338 instructions 0;
#X text 176 261 Edu Meneses (2015);
#X text 165 289 Released under GNU GPL;
#X text 176 275 www.edumeneses.com;
#X text 27 13 To use this subpatch with external controllers send the
command messages to mapping_commands:;
#X text 28 62 sintese_aditiva:;
#X text 48 82 on / off: Turn synthesis on and off (0 or 1).;
#X text 48 112 volume: Change overall volume (0 to 1).;
#X text 48 142 random: Make random synthesis (bang).;
#X text 49 172 freq_list: Insert frequencies. Uses list with 13 floats.
(0 to 1 each).;
#X text 49 210 freq: Change individual frequencies. Uses 2 floats lists.
First number 1 to 13 (frequency) and the second one 0 to 1 (intensity).
;
#X restore 753 430 pd instructions;
#X connect 1 0 2 0;
#X connect 1 0 3 0;
#X connect 1 0 4 0;
#X connect 1 0 5 0;
#X connect 1 0 6 0;
#X connect 1 0 7 0;
#X connect 1 0 8 0;
#X connect 1 0 9 0;
#X connect 1 0 10 0;
#X connect 1 0 11 0;
#X connect 1 0 12 0;
#X connect 1 0 13 0;
#X connect 1 0 14 0;
#X connect 2 0 15 0;
#X connect 3 0 18 0;
#X connect 4 0 20 0;
#X connect 5 0 22 0;
#X connect 6 0 24 0;
#X connect 7 0 26 0;
#X connect 8 0 28 0;
#X connect 9 0 30 0;
#X connect 10 0 32 0;
#X connect 11 0 34 0;
#X connect 12 0 36 0;
#X connect 13 0 38 0;
#X connect 14 0 40 0;
#X connect 15 0 42 0;
#X connect 16 0 1 0;
#X connect 17 0 42 1;
#X connect 18 0 43 0;
#X connect 19 0 43 1;
#X connect 20 0 44 0;
#X connect 21 0 44 1;
#X connect 22 0 45 0;
#X connect 23 0 45 1;
#X connect 24 0 46 0;
#X connect 25 0 46 1;
#X connect 26 0 47 0;
#X connect 27 0 47 1;
#X connect 28 0 48 0;
#X connect 29 0 48 1;
#X connect 30 0 49 0;
#X connect 31 0 49 1;
#X connect 32 0 50 0;
#X connect 33 0 50 1;
#X connect 34 0 51 0;
#X connect 35 0 51 1;
#X connect 36 0 52 0;
#X connect 37 0 52 1;
#X connect 38 0 53 0;
#X connect 39 0 53 1;
#X connect 40 0 54 0;
#X connect 41 0 54 1;
#X connect 42 0 55 0;
#X connect 43 0 55 0;
#X connect 44 0 55 0;
#X connect 45 0 55 0;
#X connect 46 0 55 0;
#X connect 47 0 55 0;
#X connect 48 0 55 0;
#X connect 49 0 55 0;
#X connect 50 0 55 0;
#X connect 51 0 55 0;
#X connect 52 0 55 0;
#X connect 53 0 55 0;
#X connect 54 0 55 0;
#X connect 55 0 67 0;
#X connect 57 0 55 1;
#X connect 59 0 60 0;
#X connect 60 0 64 0;
#X connect 60 1 64 0;
#X connect 60 2 64 0;
#X connect 60 3 64 0;
#X connect 60 4 64 0;
#X connect 60 5 64 0;
#X connect 60 6 64 0;
#X connect 60 7 64 0;
#X connect 60 8 64 0;
#X connect 60 9 64 0;
#X connect 60 10 64 0;
#X connect 60 11 64 0;
#X connect 60 12 64 0;
#X connect 61 0 68 0;
#X connect 62 0 63 0;
#X connect 62 0 65 0;
#X connect 63 0 57 0;
#X connect 64 0 61 0;
#X connect 64 0 69 0;
#X connect 65 0 17 0;
#X connect 66 0 67 1;
#X connect 67 1 56 0;
#X connect 68 1 19 0;
#X connect 68 2 21 0;
#X connect 68 3 23 0;
#X connect 68 4 25 0;
#X connect 68 5 27 0;
#X connect 68 6 29 0;
#X connect 68 7 31 0;
#X connect 68 8 33 0;
#X connect 68 9 35 0;
#X connect 68 10 37 0;
#X connect 68 11 39 0;
#X connect 68 12 41 0;
#X connect 69 0 68 1;
#X connect 75 0 77 0;
#X connect 76 0 77 1;
#X coords 0 -1 1 1 254 131 2 250 150;
