#N canvas 55 23 1215 715 10;
#X obj 53 3 cnv 15 130 300 empty empty TapeDeck 18 12 0 18 -228856
-66577 0;
#X obj 58 33 cnv 15 120 70 empty empty Recorder 20 12 0 13 -191612
-66577 0;
#X obj 58 107 cnv 15 120 189 empty empty Player 20 12 0 12 -191612
-66577 0;
#X obj 79 186 vsl 25 30 0 1 0 0 \$0-tapedeck_play_volume_send \$0-tapedeck_play_volume_r
volume -16 -9 0 12 -262144 -1 -1 0 0;
#X obj 117 176 tgl 18 0 \$0-tapedeck_play_phone_send \$0-tapedeck_play_phone_r
Phone 23 10 0 10 -262144 -1 -1 0 1;
#X obj 117 200 tgl 18 0 \$0-tapedeck_play_loop_send \$0-tapedeck_play_loop_r
loop 23 10 0 10 -262144 -1 -1 0 1;
#X obj 63 277 tgl 15 0 \$0-tapedeck_play_autoplay_send \$0-tapedeck_play_autoplay_r
autoplay 17 7 0 10 -262144 -1 -1 0 1;
#X obj 99 131 bng 33 250 50 0 \$0-tapedeck_play_pause_send \$0-tapedeck_play_pause_r
PAUSE 3 17 0 10 -262130 -1 -1;
#X obj 135 131 bng 33 250 50 0 \$0-tapedeck_play_stop_send \$0-tapedeck_play_stop_r
STOP 3 17 0 11 -261682 -1 -1;
#X obj 63 131 bng 33 250 50 0 \$0-tapedeck_play_play_send \$0-tapedeck_play_play_r
PLAY 3 17 0 11 -203904 -1 -1;
#X obj 126 242 nbx 3 14 0.01 1 1 1 \$0-tapedeck_play_pan_send \$0-tapedeck_play_pan_r
PAN 0 -8 0 10 -191407 -66577 -66577 0.5 256;
#X obj 65 242 nbx 5 14 -1 1 0 1 \$0-tapedeck_play_vel_send \$0-tapedeck_play_vel_r
vel 0 -8 0 10 -191407 -66577 -66577 0.217851 256;
#X text 150 280 v1.0;
#X text 86 258 SHIFT+click;
#X obj 104 228 bng 12 250 50 0 \$0-tapedeck_play_orig_vel_send \$0-tapedeck_play_orig_vel_r
empty 17 7 0 10 -262144 -1 -1;
#X obj 82 56 bng 8 250 50 0 \$0-tapedeck_rec_led_send \$0-tapedeck_rec_led_r
empty 17 7 0 10 -258113 -1 -258113;
#X obj 82 66 bng 33 250 50 0 \$0-tapedeck_rec_send \$0-tapedeck_rec_r
REC 6 16 0 11 -258113 -1 -135169;
#X obj 118 66 bng 33 250 50 0 \$0-tapedeck_rec_stop_send \$0-tapedeck_rec_stop_r
STOP 3 16 0 11 -26761 -13381 -1;
#X obj 205 -133 cnv 15 600 330 empty empty gravação 20 12 0 14 -233017
-66577 0;
#X msg 521 -12 stop;
#X msg 644 141 resize \$1;
#X obj 217 37 tabwrite~ \$0-recordA;
#X text 422 131 Samples de A;
#X obj 644 168 s \$0-recordA;
#X obj 528 124 f 0;
#X obj 682 -115 table \$0-recordA;
#X text 283 157 freq de leitura phasor;
#X obj 661 -51 metro 1000;
#X msg 586 -55 1;
#X msg 599 -33 0;
#X obj 430 31 timer;
#X obj 323 -35 t b b b;
#X msg 644 118 1.323e+06;
#X obj 482 -35 t b b b;
#X obj 243 -77 spigot;
#X msg 354 -105 0;
#X msg 384 -95 1;
#X obj 482 -67 spigot;
#X msg 433 -85 0;
#X msg 443 -108 1;
#X obj 384 -129 loadbang;
#X obj 604 67 samplerate~;
#X obj 372 81 expr ($f1/1000)*$f2;
#X obj 604 39 loadbang;
#X obj 321 115 expr $f2 / $f1;
#X obj 206 205 cnv 15 760 350 empty empty player 20 12 0 14 -233017
-66577 0;
#X obj 398 481 *~;
#X obj 398 366 phasor~;
#X obj 398 387 *~;
#X msg 406 344 0;
#X msg 310 313 0;
#X text 434 343 stop;
#X text 337 312 pause;
#X floatatom 398 275 12 0 0 0 - - -;
#X obj 398 408 tabread4~ \$0-recordA;
#X obj 697 296 metro 1;
#X obj 235 409 \$1 20;
#X obj 235 431 line~;
#X text 472 276 velocidade original da gravação;
#X msg 692 268 stop;
#X obj 693 414 t b b b;
#X obj 709 369 spigot;
#X obj 721 391 spigot 1;
#X obj 766 369 == 0;
#X text 801 371 loop on/off;
#X obj 695 497 spigot;
#X obj 219 255 t b b;
#X obj 733 238 t b b b;
#N canvas 816 221 309 209 spigot~ 0;
#X obj 98 26 inlet;
#X obj 45 26 inlet~;
#X obj 86 156 outlet~;
#X obj 36 156 outlet~;
#X obj 96 84 == 0;
#X obj 45 105 *~ 0;
#X obj 81 105 *~ 0;
#X msg 155 45 0;
#X obj 155 21 loadbang;
#X text 184 45 situação inicial;
#X connect 0 0 4 0;
#X connect 0 0 5 1;
#X connect 1 0 5 0;
#X connect 1 0 6 0;
#X connect 4 0 6 1;
#X connect 5 0 2 0;
#X connect 6 0 3 0;
#X connect 7 0 4 0;
#X connect 7 0 5 1;
#X connect 8 0 7 0;
#X restore 398 431 pd spigot~;
#N canvas 820 276 412 251 counter 0;
#X obj 25 73 f;
#X obj 95 80 + 1;
#X obj 25 18 inlet;
#X obj 25 48 bng 15 250 50 0 empty empty empty 17 7 0 10 -262144 -1
-1;
#X obj 25 128 outlet;
#X obj 262 16 inlet;
#X text 302 18 change max;
#X text 61 20 count;
#X obj 95 102 mod 1;
#X obj 116 138 ==;
#X obj 138 102 - 1;
#X obj 116 190 outlet;
#X obj 116 164 sel 1;
#X text 160 191 bang on max;
#X obj 135 14 inlet;
#X text 171 16 reset;
#X msg 135 38 0;
#X obj 262 39 i;
#X connect 0 0 1 0;
#X connect 0 0 4 0;
#X connect 1 0 8 0;
#X connect 2 0 3 0;
#X connect 3 0 0 0;
#X connect 5 0 17 0;
#X connect 8 0 0 1;
#X connect 8 0 9 0;
#X connect 9 0 12 0;
#X connect 10 0 9 1;
#X connect 12 0 11 0;
#X connect 14 0 16 0;
#X connect 16 0 0 1;
#X connect 17 0 10 0;
#X connect 17 0 8 1;
#X restore 697 319 pd counter;
#X obj 387 508 *~;
#X obj 414 508 *~;
#X obj 429 481 expr ($f1-1)*-1;
#X obj 364 530 outlet~;
#X obj 414 530 outlet~;
#N canvas 581 235 215 264 filtros 0;
#X obj 94 36 inlet~;
#X obj 94 187 outlet~;
#X obj 94 85 lop~ 3000;
#X obj 94 105 lop~ 3000;
#X obj 94 125 hip~ 300;
#X obj 94 145 hip~ 300;
#X connect 0 0 2 0;
#X connect 2 0 3 0;
#X connect 3 0 4 0;
#X connect 4 0 5 0;
#X connect 5 0 1 0;
#X restore 455 454 pd filtros;
#X obj 217 -24 inlet~;
#X obj 321 141 v \$0-FreqrecA;
#X obj 426 115 v \$0-QDSrecA;
#X obj 430 53 s \$0-tempoA;
#X obj 500 370 v \$0-QDSrecA;
#X obj 754 297 r \$0-tempoA;
#X obj 398 250 v \$0-FreqrecA;
#X obj 209 -108 r \$0-tapedeck_rec_send;
#X obj 661 -27 s \$0-tapedeck_rec_led_r;
#X obj 482 -128 r \$0-tapedeck_rec_stop_send;
#X obj 695 453 r \$0-tapedeck_rec_stop_send;
#X obj 516 232 r \$0-tapedeck_play_play_send;
#X obj 695 526 s \$0-tapedeck_play_play_r;
#X obj 219 230 r \$0-tapedeck_play_pause_send;
#X obj 703 214 r \$0-tapedeck_play_stop_send;
#X obj 209 386 r \$0-tapedeck_play_volume_send;
#X obj 478 428 r \$0-tapedeck_play_phone_send;
#X obj 767 344 r \$0-tapedeck_play_loop_send;
#X obj 398 208 r \$0-tapedeck_play_orig_vel_send;
#X obj 398 296 s \$0-tapedeck_play_vel_r;
#X obj 398 318 r \$0-tapedeck_play_vel_send;
#X obj 766 474 r \$0-tapedeck_play_autoplay_send;
#X text 61 313 Edu Meneses (2015);
#X text 50 341 Released under GNU GPL;
#X text 61 327 www.edumeneses.com;
#X obj 814 88 cnv 15 310 90 empty empty patch_mapping_TapeDeck 20 12
0 14 -232576 -66577 0;
#N canvas 737 107 443 414 instructions 0;
#X text 156 311 Edu Meneses (2015);
#X text 145 339 Released under GNU GPL;
#X text 156 325 www.edumeneses.com;
#X text 41 68 rec: start recording (bang).;
#X text 42 99 play \, pause \, stop: player controls (bang).;
#X text 41 115 volume: player volume (0 to 1).;
#X text 42 131 phone: turn on/off filters (0 or 1).;
#X text 40 147 loop: play in loop (0 or 1).;
#X text 42 163 vel: set player speed (-1 to 1).;
#X text 42 178 vel_orig: return to original speed (bang).;
#X text 42 193 pan: control pan (0 to 1 \, L to R).;
#X text 42 209 autoplay: turn on/off autoplay after stops recording
(0 or 1).;
#X text 27 5 To use this subpatch with external controllers send the
command messages to mapping_commands:;
#X text 25 54 tapedeck:;
#X text 41 83 stoprec: stop recording (bang).;
#X restore 1018 156 pd instructions;
#N canvas 128 221 587 321 patch_mapping_tapedeck 0;
#X obj 69 114 s \$0-tapedeck_play_pause_r;
#X obj 269 115 s \$0-tapedeck_play_orig_vel_r;
#X obj 36 93 s \$0-tapedeck_play_play_r;
#X obj 102 135 s \$0-tapedeck_play_stop_r;
#X obj 36 4 inlet;
#X obj 135 156 s \$0-tapedeck_play_volume_r;
#X obj 169 177 s \$0-tapedeck_play_phone_r;
#X obj 202 198 s \$0-tapedeck_play_loop_r;
#X obj 235 93 s \$0-tapedeck_play_vel_r;
#X obj 335 156 s \$0-tapedeck_play_autoplay_r;
#X obj 302 135 s \$0-tapedeck_play_pan_r;
#X obj 362 179 s \$0-tapedeck_rec_r;
#X obj 402 200 s \$0-tapedeck_rec_stop_r;
#X obj 197 -31 loadbang;
#X obj 117 4 inlet;
#X obj 197 20 s \$0-player_patch_mapping_default;
#X obj 36 55 route play pause stop volume phone loop vel vel_orig pan
autoplay rec stoprec;
#X obj 36 32 route tapedeck;
#X msg 197 -7 set tapedeck;
#X connect 4 0 17 0;
#X connect 13 0 18 0;
#X connect 14 0 17 1;
#X connect 16 0 2 0;
#X connect 16 1 0 0;
#X connect 16 2 3 0;
#X connect 16 3 5 0;
#X connect 16 4 6 0;
#X connect 16 5 7 0;
#X connect 16 6 8 0;
#X connect 16 7 1 0;
#X connect 16 8 10 0;
#X connect 16 9 9 0;
#X connect 16 10 11 0;
#X connect 16 11 12 0;
#X connect 17 0 16 0;
#X connect 18 0 15 0;
#X restore 832 156 pd patch_mapping_tapedeck;
#X obj 832 130 r mapping_commands;
#X symbolatom 979 130 15 0 0 2 address #0-player_patch_mapping_default
-;
#X connect 10 0 72 0;
#X connect 10 0 70 1;
#X connect 19 0 21 0;
#X connect 20 0 23 0;
#X connect 24 0 20 0;
#X connect 27 0 84 0;
#X connect 28 0 27 0;
#X connect 29 0 27 0;
#X connect 30 0 42 0;
#X connect 30 0 79 0;
#X connect 31 0 21 0;
#X connect 31 1 30 0;
#X connect 31 1 35 0;
#X connect 31 2 32 0;
#X connect 31 2 28 0;
#X connect 31 2 39 0;
#X connect 32 0 20 0;
#X connect 33 0 24 0;
#X connect 33 0 38 0;
#X connect 33 0 36 0;
#X connect 33 1 30 1;
#X connect 33 2 19 0;
#X connect 33 2 29 0;
#X connect 34 0 31 0;
#X connect 35 0 34 1;
#X connect 36 0 34 1;
#X connect 37 0 33 0;
#X connect 38 0 37 1;
#X connect 39 0 37 1;
#X connect 40 0 36 0;
#X connect 41 0 42 1;
#X connect 41 0 44 1;
#X connect 42 0 24 1;
#X connect 42 0 44 0;
#X connect 42 0 78 0;
#X connect 43 0 41 0;
#X connect 44 0 77 0;
#X connect 46 0 71 0;
#X connect 46 0 70 0;
#X connect 47 0 48 0;
#X connect 48 0 54 0;
#X connect 49 0 47 1;
#X connect 49 0 47 0;
#X connect 50 0 47 0;
#X connect 53 0 95 0;
#X connect 54 0 68 0;
#X connect 55 0 69 0;
#X connect 56 0 57 0;
#X connect 57 0 46 1;
#X connect 59 0 55 0;
#X connect 60 0 69 1;
#X connect 60 1 59 0;
#X connect 60 2 49 0;
#X connect 61 0 69 1;
#X connect 62 0 60 0;
#X connect 63 0 62 1;
#X connect 65 0 88 0;
#X connect 66 0 59 0;
#X connect 66 1 50 0;
#X connect 67 0 69 1;
#X connect 67 1 59 0;
#X connect 67 2 49 0;
#X connect 68 0 46 0;
#X connect 68 1 75 0;
#X connect 69 1 62 0;
#X connect 69 1 61 0;
#X connect 70 0 73 0;
#X connect 71 0 74 0;
#X connect 72 0 71 1;
#X connect 75 0 46 0;
#X connect 76 0 21 0;
#X connect 80 0 48 1;
#X connect 81 0 69 2;
#X connect 82 0 53 0;
#X connect 83 0 34 0;
#X connect 85 0 37 0;
#X connect 86 0 65 0;
#X connect 87 0 55 0;
#X connect 87 0 80 0;
#X connect 87 0 82 0;
#X connect 89 0 66 0;
#X connect 90 0 67 0;
#X connect 91 0 56 0;
#X connect 92 0 68 1;
#X connect 93 0 63 0;
#X connect 93 0 61 1;
#X connect 94 0 82 0;
#X connect 96 0 47 0;
#X connect 97 0 65 1;
#X connect 104 0 103 0;
#X connect 105 0 103 1;
#X coords 0 -1 1 1 136 306 2 50 0;
