#N canvas 422 117 641 578 10;
#X obj 123 279 *~;
#X obj 97 355 *~;
#X obj 162 338 expr~ ($v1 + 1) / 2;
#X obj 198 240 \$1 20;
#X obj 198 262 line~;
#X obj 123 234 osc~ 10;
#X obj 90 13 loadbang;
#X obj 103 103 cnv 15 148 118 empty empty Trêmolo(AM) 20 12 0 14 -126377
-204800 0;
#X obj 125 186 hsl 40 20 0 1 0 0 \$0-Tremolo_OSC_Depth_r \$0-Tremolo_OSC_Depth_s
OSC_Depth -6 -8 0 10 -262144 -1 -1 3900 1;
#X obj 133 130 tgl 20 0 \$0-Tremolo_ON/OFF_r \$0-Tremolo_ON/OFF_s ON/OFF
-7 28 0 10 -262144 -1 -1 0 1;
#X obj 190 184 tgl 15 0 \$0-Tremolo_Ring_r \$0-Tremolo_Ring_s Ring
17 7 0 10 -262144 -1 -1 0 1;
#X obj 28 13 inlet~;
#X obj 136 427 outlet~;
#X obj 121 38 delay 100;
#X msg 90 66 1;
#X msg 142 72 10;
#X obj 188 148 nbx 4 17 0.02 20 1 1 \$0-Tremolo_Rate_r \$0-Tremolo_Rate_s
Rate 0 -8 0 12 -204786 -1 -1 10 256;
#X obj 118 380 *~;
#N canvas 760 227 190 238 spigot~ 0;
#X obj 98 26 inlet;
#X obj 45 26 inlet~;
#X obj 36 186 outlet~;
#X obj 86 186 outlet~;
#X obj 96 114 == 0;
#X obj 45 135 *~ 0;
#X obj 81 135 *~ 0;
#X obj 107 50 loadbang;
#X msg 107 72 0;
#X connect 0 0 4 0;
#X connect 0 0 5 1;
#X connect 1 0 5 0;
#X connect 1 0 6 0;
#X connect 4 0 6 1;
#X connect 5 0 3 0;
#X connect 6 0 2 0;
#X connect 7 0 8 0;
#X connect 8 0 4 0;
#X connect 8 0 5 1;
#X restore 123 303 pd spigot~;
#X text 251 489 Edu Meneses (2015);
#X text 240 517 Released under GNU GPL;
#X text 251 503 www.edumeneses.com;
#X obj 306 153 cnv 15 270 100 empty empty patch_mapping_Tremolo(AM)
20 12 0 14 -232576 -66577 0;
#N canvas 808 95 450 300 instructions 0;
#X text 156 231 Edu Meneses (2015);
#X text 145 259 Released under GNU GPL;
#X text 156 245 www.edumeneses.com;
#X text 37 23 To use this subpatch with external controllers send the
command messages to mapping_commands:;
#X text 28 82 tremolo:;
#X text 48 102 on / off: Turn the subpatch on and off (0 or 1).;
#X text 48 122 modulador: change tremolo presence (0 to 1).;
#X text 48 142 rate: change tremolo frequency (0 to 20).;
#X text 48 162 ring: Turn on the ring modulation (0 or 1).;
#X restore 473 228 pd instructions;
#X text 223 207 v1.0;
#X obj 319 203 r mapping_commands;
#X symbolatom 460 203 15 0 0 2 address #0-tremolo_patch_mapping_default
-;
#N canvas 581 137 521 282 patch_mapping_tremolo 0;
#X obj 46 64 inlet;
#X msg 46 154 1;
#X msg 82 154 0;
#X obj 121 64 inlet;
#X obj 293 47 loadbang;
#X obj 46 182 s \$0-Tremolo_ON/OFF_s;
#X obj 159 209 s \$0-Tremolo_Ring_s;
#X obj 121 154 s \$0-Tremolo_OSC_Depth_s;
#X obj 197 182 s \$0-Tremolo_Rate_s;
#X obj 46 130 route on off modulador ring rate;
#X msg 293 71 set tremolo;
#X obj 46 92 route tremolo;
#X obj 293 98 s \$0-tremolo_patch_mapping_default;
#X connect 0 0 11 0;
#X connect 1 0 5 0;
#X connect 2 0 5 0;
#X connect 3 0 11 1;
#X connect 4 0 10 0;
#X connect 9 0 1 0;
#X connect 9 1 2 0;
#X connect 9 2 7 0;
#X connect 9 3 6 0;
#X connect 9 4 8 0;
#X connect 10 0 12 0;
#X connect 11 0 9 0;
#X restore 319 224 pd patch_mapping_tremolo;
#X connect 0 0 18 0;
#X connect 1 0 17 0;
#X connect 2 0 1 1;
#X connect 3 0 4 0;
#X connect 4 0 0 1;
#X connect 5 0 0 0;
#X connect 6 0 13 0;
#X connect 8 0 3 0;
#X connect 9 0 17 1;
#X connect 10 0 18 1;
#X connect 11 0 1 0;
#X connect 13 0 14 0;
#X connect 13 0 15 0;
#X connect 14 0 8 0;
#X connect 15 0 16 0;
#X connect 16 0 5 0;
#X connect 17 0 12 0;
#X connect 18 0 2 0;
#X connect 18 1 1 1;
#X connect 25 0 27 0;
#X connect 26 0 27 1;
#X coords 0 -1 1 1 154 124 2 100 100;
