#N canvas 1603 266 708 903 10;
#X msg 135 81 devices;
#X obj 97 137 comport 1;
#X msg 229 92 close;
#X msg 37 63 open 1;
#X obj 278 299 list store;
#X msg 267 234 append \$1;
#X obj 231 263 t b b;
#X text 289 191 ends message when receive "new line" (10);
#X text 289 169 end list objet when receives "space"(32);
#X obj 273 372 list tosymbol;
#X obj 221 480 list store;
#X msg 287 444 append \$1;
#X obj 177 222 t b b b;
#X obj 221 514 route list;
#X msg 91 735 disconnect;
#X floatatom 191 839 0 0 0 0 - - -;
#X text 40 694 UDP;
#X text 166 737 Close the connection;
#X text 421 548 receiving button data;
#X obj 273 350 spigot;
#X obj 357 351 spigot;
#X obj 201 172 sel 10 32 47;
#X obj 362 242 t 1 0;
#X text 288 147 47 starts new message;
#X obj 417 242 t 0 1;
#X obj 357 373 list split 1;
#X obj 357 397 expr $f1 - 48;
#X obj 290 548 route b1 b2 b3 b4 b5;
#X obj 23 26 loadbang;
#X obj 336 707 list prepend send;
#X obj 336 735 list trim;
#X obj 279 678 oscformat b1;
#X msg 29 714 connect localhost 5000;
#X obj 192 812 netsend -u -b;
#X text 218 841 1 = connected;
#X text 217 863 0 = disconnected;
#X text 70 694 Connect to "localhost" port;
#X obj 358 678 oscformat b2;
#X obj 437 678 oscformat b3;
#X obj 517 678 oscformat b4;
#X obj 597 678 oscformat b5;
#X obj 295 637 outlet;
#X obj 368 643 outlet;
#X obj 442 651 outlet;
#X obj 517 653 outlet;
#X obj 600 649 outlet;
#X connect 0 0 1 0;
#X connect 1 0 21 0;
#X connect 2 0 1 0;
#X connect 3 0 1 0;
#X connect 4 0 19 0;
#X connect 4 0 20 0;
#X connect 5 0 4 0;
#X connect 6 0 4 1;
#X connect 6 1 4 0;
#X connect 9 0 11 0;
#X connect 10 0 13 0;
#X connect 11 0 10 0;
#X connect 12 0 10 1;
#X connect 12 1 10 0;
#X connect 12 2 6 0;
#X connect 13 0 27 0;
#X connect 14 0 33 0;
#X connect 19 0 9 0;
#X connect 20 0 25 0;
#X connect 21 0 12 0;
#X connect 21 1 6 0;
#X connect 21 1 24 0;
#X connect 21 2 22 0;
#X connect 21 3 5 0;
#X connect 22 0 19 1;
#X connect 22 1 20 1;
#X connect 24 0 19 1;
#X connect 24 1 20 1;
#X connect 25 0 26 0;
#X connect 26 0 11 0;
#X connect 27 0 31 0;
#X connect 27 0 41 0;
#X connect 27 1 37 0;
#X connect 27 1 42 0;
#X connect 27 2 38 0;
#X connect 27 2 43 0;
#X connect 27 3 39 0;
#X connect 27 3 44 0;
#X connect 27 4 40 0;
#X connect 27 4 45 0;
#X connect 28 0 32 0;
#X connect 28 0 3 0;
#X connect 29 0 30 0;
#X connect 30 0 33 0;
#X connect 31 0 29 0;
#X connect 32 0 33 0;
#X connect 33 0 15 0;
#X connect 37 0 29 0;
