#N canvas 58 98 541 545 10;
#X obj 142 17 loadbang;
#X msg 170 64 0.5;
#X obj 103 103 cnv 15 118 78 empty empty FM 20 12 0 14 -126377 -204800
0;
#X obj 115 143 hsl 40 20 0 1 0 0 \$0-FM_Depth_r \$0-FM_Depth_s Modulador
-6 -8 0 10 -262144 -1 -1 1950 1;
#X obj 183 131 tgl 20 0 \$0-FM_ON/OFF_r \$0-FM_ON/OFF_s ON/OFF -7 28
0 10 -262144 -1 -1 0 1.29032;
#X obj 14 39 inlet~;
#X obj 114 352 *~;
#X msg 112 42 1;
#X obj 114 384 outlet~;
#X obj 170 43 delay 100;
#X obj 57 275 *~;
#X obj 72 231 \$1 20;
#X obj 72 253 line~;
#X obj 43 99 inlet~;
#X text 5 18 portadora;
#X text 35 78 moduladora;
#X obj 13 202 delwrite~ \$0-FM_table 100;
#X obj 57 299 vd~ \$0-FM_table;
#N canvas 553 239 323 213 spigot~ 0;
#X obj 98 26 inlet;
#X obj 45 26 inlet~;
#X obj 86 156 outlet~;
#X obj 36 156 outlet~;
#X obj 96 84 == 0;
#X obj 45 105 *~ 0;
#X obj 81 105 *~ 0;
#X obj 169 29 loadbang;
#X msg 169 54 0;
#X text 198 54 estado inicial;
#X connect 0 0 4 0;
#X connect 0 0 5 1;
#X connect 1 0 5 0;
#X connect 1 0 6 0;
#X connect 4 0 6 1;
#X connect 5 0 2 0;
#X connect 6 0 3 0;
#X connect 7 0 8 0;
#X connect 8 0 4 0;
#X connect 8 0 5 1;
#X restore 57 326 pd spigot~;
#X text 93 466 Edu Meneses (2015);
#X text 82 494 Released under GNU GPL;
#X text 93 480 www.edumeneses.com;
#X obj 235 255 cnv 15 240 90 empty empty patch_mapping_FM 20 12 0 14
-232576 -66577 0;
#X text 193 168 v1.0;
#X obj 243 299 r mapping_commands;
#N canvas 114 267 403 300 patch_mapping_FM 0;
#X obj 46 64 inlet;
#X obj 30 191 s \$0-FM_ON/OFF_s;
#X obj 132 191 s \$0-FM_Depth_s;
#X obj 46 92 route FM;
#X obj 46 130 route on off modulador;
#X msg 46 156 1;
#X msg 89 157 0;
#X obj 148 23 loadbang;
#X obj 148 74 s \$0-FM_patch_mapping_default;
#X msg 148 47 set FM;
#X obj 91 64 inlet;
#X connect 0 0 3 0;
#X connect 3 0 4 0;
#X connect 4 0 5 0;
#X connect 4 1 6 0;
#X connect 4 2 2 0;
#X connect 5 0 1 0;
#X connect 6 0 1 0;
#X connect 7 0 9 0;
#X connect 9 0 8 0;
#X connect 10 0 3 1;
#X restore 243 320 pd patch_mapping_FM;
#N canvas 814 231 450 300 instructions 0;
#X text 156 231 Edu Meneses (2015);
#X text 145 259 Released under GNU GPL;
#X text 156 245 www.edumeneses.com;
#X text 47 25 To use this subpatch with external controllers send the
command messages to mapping_commands:;
#X text 26 85 FM:;
#X text 48 102 on ou off: Turn the subpatch on and off (0 or 1).;
#X text 48 122 modulador: change modulator presence (0 to 1).;
#X restore 371 320 pd instructions;
#X symbolatom 359 299 15 0 0 2 address #0-FM_patch_mapping_default
-;
#X connect 0 0 7 0;
#X connect 0 0 9 0;
#X connect 1 0 3 0;
#X connect 3 0 11 0;
#X connect 4 0 18 1;
#X connect 5 0 16 0;
#X connect 6 0 8 0;
#X connect 7 0 3 0;
#X connect 9 0 1 0;
#X connect 10 0 17 0;
#X connect 11 0 12 0;
#X connect 12 0 10 1;
#X connect 13 0 10 0;
#X connect 17 0 18 0;
#X connect 18 1 6 0;
#X connect 24 0 25 0;
#X connect 27 0 25 1;
#X coords 0 -1 1 1 124 84 2 100 100;
